<svg xmlns="http://www.w3.org/2000/svg" xmlns:xlink="http://www.w3.org/1999/xlink" width="848.696" height="686.646" viewBox="0 0 848.696 686.646"><defs><style>.a,.ak{fill:#fff;}.az,.b,.ba,.bb,.bc,.bd,.br,.bs,.bt{fill:#0092ff;}.b{opacity:0.1;}.c{opacity:0.2;}.d{opacity:0;}.e{fill:#6b99d1;opacity:0.554;}.f{fill:url(#a);}.g{fill:url(#b);}.h{fill:url(#c);}.i{fill:url(#d);}.j{fill:url(#e);}.k{fill:url(#f);}.l{fill:url(#g);}.m{fill:url(#h);}.n{fill:url(#i);}.o{fill:url(#j);}.p{fill:url(#k);}.q{fill:url(#l);}.r{fill:url(#m);}.s{fill:url(#n);}.t{fill:url(#o);}.u{fill:url(#p);}.v{fill:url(#q);}.w{fill:url(#r);}.x{fill:url(#s);}.y{fill:#ebdef3;}.z{fill:url(#t);}.aa{fill:url(#u);}.ab{fill:url(#v);}.ac{fill:url(#w);}.ad{fill:url(#x);}.ae{fill:url(#y);}.af{fill:url(#z);}.ag{fill:#a5cbfa;}.ah{fill:#dceeff;}.ai{fill:#2c3f84;}.aj{fill:#2e3552;}.ak{opacity:0.203;}.al{fill:#6559d8;}.am{fill:url(#aa);}.an{fill:url(#ab);}.ao{fill:#eb4747;}.ap{fill:#ebc661;}.aq{fill:#bf92de;}.ar{fill:url(#ac);}.as{fill:url(#ad);}.at{fill:url(#ae);}.au{fill:url(#af);}.av{fill:url(#ag);}.aw{fill:url(#ah);}.ax{fill:url(#ai);}.ay{fill:#bcbec0;}.az,.bq{opacity:0.8;}.ba{opacity:0.6;}.bb{opacity:0.4;}.bc{opacity:0.25;}.bd{opacity:0.15;}.be{opacity:0.95;}.bf{fill:#8bcdff;}.bg{fill:url(#aj);}.bh{fill:#62b7fc;}.bi{fill:#4983b2;}.bj{clip-path:url(#ak);}.bk{fill:#fdd762;}.bl{fill:#fedf81;}.bm{fill:#e8a200;}.bn{fill:#f9bf30;}.bo{fill:#f4c13a;}.bp{fill:url(#al);}.br{opacity:0.3;}.bs{opacity:0.5;}</style><linearGradient id="a" y1="0.154" x2="1.492" y2="1.491" gradientUnits="objectBoundingBox"><stop offset="0" stop-color="#66ceac"/><stop offset="0.332" stop-color="#3a36c6"/><stop offset="0.807" stop-color="#45108a"/><stop offset="1" stop-color="#45108a"/></linearGradient><linearGradient id="b" x1="-12.052" y1="38.745" x2="-10.895" y2="38.745" gradientUnits="objectBoundingBox"><stop offset="0.035" stop-color="#9f19ab"/><stop offset="0.244" stop-color="#ae25b1"/><stop offset="0.646" stop-color="#d744bf"/><stop offset="1" stop-color="#ff63ce"/></linearGradient><linearGradient id="c" x1="-11.954" y1="38.461" x2="-10.797" y2="38.461" gradientUnits="objectBoundingBox"><stop offset="0.035" stop-color="#ffa98c"/><stop offset="0.317" stop-color="#ffb892"/><stop offset="0.86" stop-color="#fee1a3"/><stop offset="1" stop-color="#feeca8"/></linearGradient><radialGradient id="d" cx="0.494" cy="0.498" r="0.381" gradientTransform="translate(-0.762) scale(2.525 1)" gradientUnits="objectBoundingBox"><stop offset="0" stop-color="#fff"/><stop offset="1"/></radialGradient><radialGradient id="e" cx="0.497" cy="0.505" r="0.383" gradientTransform="translate(-0.707) scale(2.414 1)" xlink:href="#d"/><radialGradient id="f" cx="0.501" cy="0.497" r="0.378" gradientTransform="translate(-0.823) scale(2.646 1)" xlink:href="#d"/><radialGradient id="g" cx="0.505" cy="0.498" r="0.381" xlink:href="#d"/><radialGradient id="h" cx="0.501" cy="0.507" r="0.383" gradientTransform="translate(-0.707) scale(2.414 1)" xlink:href="#d"/><radialGradient id="i" cx="0.495" cy="0.499" r="0.378" gradientTransform="translate(-0.823) scale(2.646 1)" xlink:href="#d"/><radialGradient id="j" cx="0.498" cy="0.503" r="0.378" gradientTransform="translate(-0.802) scale(2.604 1)" xlink:href="#d"/><radialGradient id="k" cx="0.502" cy="0.5" r="0.38" gradientTransform="translate(-0.774) scale(2.548 1)" xlink:href="#d"/><radialGradient id="l" cx="0.499" cy="0.505" r="0.383" gradientTransform="translate(-0.707) scale(2.414 1)" xlink:href="#d"/><radialGradient id="m" cx="0.502" cy="0.503" r="0.383" gradientTransform="translate(-0.707) scale(2.414 1)" xlink:href="#d"/><radialGradient id="n" cx="0.496" cy="0.504" r="0.383" gradientTransform="translate(-0.707) scale(2.414 1)" xlink:href="#d"/><radialGradient id="o" cx="0.5" cy="0.506" r="0.383" gradientTransform="translate(-0.707) scale(2.414 1)" xlink:href="#d"/><radialGradient id="p" cx="0.497" cy="0.501" r="0.38" gradientTransform="translate(-0.774) scale(2.548 1)" xlink:href="#d"/><radialGradient id="q" cx="0.5" cy="0.499" r="0.38" gradientTransform="translate(-0.774) scale(2.548 1)" xlink:href="#d"/><radialGradient id="r" cx="0.504" cy="0.5" r="0.38" gradientTransform="translate(-0.774) scale(2.548 1)" xlink:href="#d"/><radialGradient id="s" cx="0.497" cy="0.501" r="0.38" gradientTransform="translate(-0.774) scale(2.548 1)" xlink:href="#d"/><linearGradient id="t" x1="-11.534" y1="64.144" x2="-12.937" y2="62.767" xlink:href="#c"/><linearGradient id="u" x1="-11.62" y1="71.882" x2="-12.904" y2="70.472" xlink:href="#c"/><linearGradient id="v" x1="-11.632" y1="72.425" x2="-12.911" y2="71.006" xlink:href="#c"/><radialGradient id="w" cx="0.499" cy="0.5" r="0.599" gradientTransform="translate(0.135) scale(0.73 1)" xlink:href="#d"/><radialGradient id="x" cx="0.499" cy="0.501" r="0.553" gradientTransform="translate(0.084) scale(0.832 1)" xlink:href="#d"/><radialGradient id="y" cx="0.499" cy="0.502" r="0.575" gradientTransform="translate(0.111) scale(0.779 1)" xlink:href="#d"/><linearGradient id="z" x1="-0.203" y1="0.032" x2="0.701" y2="0.616" gradientUnits="objectBoundingBox"><stop offset="0.056" stop-color="#200041"/><stop offset="0.258" stop-color="#210243"/><stop offset="0.357" stop-color="#25084b"/><stop offset="0.434" stop-color="#2c1358"/><stop offset="0.47" stop-color="#311b61"/><stop offset="0.482" stop-color="#351f65"/><stop offset="0.495" stop-color="#422c73"/><stop offset="0.509" stop-color="#584188"/><stop offset="0.524" stop-color="#765fa7"/><stop offset="0.53" stop-color="#8770b8"/><stop offset="0.537" stop-color="#7e67ae"/><stop offset="0.562" stop-color="#5c468d"/><stop offset="0.586" stop-color="#442e75"/><stop offset="0.608" stop-color="#362066"/><stop offset="0.626" stop-color="#311b61"/><stop offset="0.672" stop-color="#2a1155"/><stop offset="0.749" stop-color="#230446"/><stop offset="0.813" stop-color="#200041"/><stop offset="1" stop-color="#200041"/></linearGradient><linearGradient id="aa" x1="-0.085" y1="0.025" x2="0.802" y2="0.881" gradientUnits="objectBoundingBox"><stop offset="0" stop-color="#66ceac"/><stop offset="1" stop-color="#3a36c6"/></linearGradient><linearGradient id="ab" x1="0.262" y1="-0.152" x2="1.793" y2="1.268" xlink:href="#aa"/><linearGradient id="ac" x1="6.647" y1="2.736" x2="-3.093" y2="-0.808" xlink:href="#c"/><linearGradient id="ad" x1="5.23" y1="2.222" x2="-4.51" y2="-1.323" xlink:href="#c"/><linearGradient id="ae" x1="3.814" y1="1.707" x2="-5.926" y2="-1.838" xlink:href="#c"/><linearGradient id="af" x1="1.367" y1="2.382" x2="-0.102" y2="-0.807" xlink:href="#c"/><linearGradient id="ag" x1="1.059" y1="1.715" x2="-0.409" y2="-1.474" xlink:href="#c"/><linearGradient id="ah" x1="0.958" y1="1.497" x2="-0.347" y2="-1.342" xlink:href="#c"/><linearGradient id="ai" x1="1.266" y1="2.368" x2="0.005" y2="-0.703" xlink:href="#c"/><linearGradient id="aj" x1="9.379" y1="0.288" x2="9.304" y2="0.529" gradientUnits="objectBoundingBox"><stop offset="0" stop-color="#5513ab"/><stop offset="1" stop-color="#be3bff"/></linearGradient><clipPath id="ak"><path class="a" d="M606.7,811.809l33.127,26.885,25.112-25.253-17.38-40.647L608.97,759.6,606.842,774Z" transform="translate(-606.7 -759.6)"/></clipPath><linearGradient id="al" x1="1.729" y1="2.246" x2="-1.124" y2="-1.78" gradientUnits="objectBoundingBox"><stop offset="0.035" stop-color="#ffba78"/><stop offset="0.395" stop-color="#ffc987"/><stop offset="1" stop-color="#feeca8"/></linearGradient></defs><path class="b" d="M812.411,543.386q-3.973,3.595-8.124,6.984c-.465.388-.945.76-1.418,1.155a284.946,284.946,0,0,1-31.018,21.561l-2.016,1.209c-.488.3-.968.585-1.477.866-11.27,6.7-22.961,12.859-34.792,18.7l-.126.068-.894.433q-14.313,7.06-29.054,13.512l-.236.091q-6.647,2.88-13.293,5.609c-1.809.76-3.626,1.467-5.443,2.189-3.419,1.345-6.846,2.668-10.3,3.937l-.428.167-.739.266-.923.35q-13.522,4.97-27.406,9.18l-.162.046q-9.682,2.9-19.49,5.373l-.894.228c-9.6,2.386-19.357,4.438-29.172,6.08l-2.26.372q-10.768,1.74-21.683,2.842c-40.907,4.066-82.3.76-122.957-4.909-82.094-11.461-163.1-32.945-236.985-66.62q-21.269-9.69-41.712-20.748c-.111-.061-.207-.122-.318-.175q-12.237-6.619-24.142-13.794c-2.326-1.383-4.638-2.8-6.935-4.218q-4.239-2.63-8.441-5.32-5.539-3.557-11.078-7.288l-1.728-1.185-.665-.464c-.938-.646-1.861-1.292-2.792-1.946C78.6,493.615,47.649,464.143,33.026,427.261c-16.9-42.559-6.085-96.518,35.767-121.673,14.386-8.664,31.107-13.368,48-17.252l1.728-.4c2.858-.646,5.716-1.269,8.559-1.892,9.963-2.174,19.977-4.332,29.9-6.741h0c5.17-1.254,10.288-2.569,15.376-3.99l2.083-.593a244.3,244.3,0,0,0,35.9-13.011h.074q1.872-.855,3.693-1.771c.783-.38,1.566-.76,2.349-1.178,12.555-6.429,25.848-15.344,36.077-25.969.82-.851,1.617-1.718,2.393-2.584.6-.676,1.189-1.36,1.758-2.044,7.171-8.6,12.134-18.156,13.079-28.294h0a37.519,37.519,0,0,0-.443-10.207c-1.159-6.376-2.282-12.616-3.109-18.7-1.543-11.438-2.068-22.374.074-32.915h0c2.179-10.746,7.119-21.089,16.55-31.121q2.134-2.28,4.6-4.56a96.616,96.616,0,0,1,25.575-16.628q1.728-.76,3.478-1.52C342.393,73.43,373.522,71.18,402.605,72.67A457.349,457.349,0,0,1,483.3,84.221c2.1.486,4.21,1,6.3,1.52a547.77,547.77,0,0,1,66.467,21.15c56.408,21.834,109.648,52.15,159.388,85.6.487.327.975.654,1.477.988q3.116,2.09,6.2,4.2,5.96,4.066,11.816,8.185l2.636,1.847q1.95,1.368,3.877,2.744l3.958,2.82h0a4.343,4.343,0,0,1,.532.388l3.368,2.4c1.95,1.4,3.885,2.8,5.827,4.218h0l4.165,3.04c.864.638,1.735,1.269,2.6,1.915l4.431,3.329.99.76c.207.152.414.3.613.471l.126.084c12.008,9.067,23.729,18.468,34.711,28.431l1.418,1.292.148.137c1.2,1.094,2.393,2.2,3.567,3.321C822.249,276.5,835.1,290.936,845.6,306.9,893.841,380.614,879.521,482.687,812.411,543.386Z" transform="translate(-25.39 -16.257)"/><g transform="translate(-4395.641 -11447.168)"><g transform="translate(4562.151 11447.168)"><g class="c" transform="translate(143.894 460.074)"><path class="d" d="M491.4,890.139a35.013,35.013,0,0,1-17.521-4.256L367.191,825.232,260.573,764.582c-6.384-3.689-10.073-9.576-10.073-16.032,0-7.094,4.4-13.762,12.13-18.231l69.731-39.228a43.368,43.368,0,0,1,21.352-5.391,35.013,35.013,0,0,1,17.521,4.256l106.618,60.651L584.47,811.258c6.384,3.689,10.073,9.576,10.073,16.032,0,7.094-4.4,13.762-12.13,18.231l-69.731,39.228A43.293,43.293,0,0,1,491.4,890.139Z" transform="translate(-250.5 -685.7)"/><path class="e" d="M477.924,891.369,385,837.741,292.07,784.113c-7.306-4.256-6.455-11.634,2.057-16.528l13.833-6.739c8.441-4.895,21.281-5.391,28.658-1.206l92.927,53.628L522.472,866.9c7.306,4.256,6.455,11.634-2.057,16.528l-13.833,6.739C498.07,895.058,485.3,895.554,477.924,891.369Z" transform="translate(-263.923 -698.023)"/></g><g transform="translate(0 37.121)"><path class="f" d="M252.905,365.29,60.064,253.944c-10.579-6.112-11.409-12.326-11.891-22.09-1.453-29.437.46-91.229,1.711-125.022.518-13.974.923-23.16,18.236-13.163L252.905,200.362c7.094,4.114,12.839,15.109,12.839,24.615V355.571C265.745,365.006,260,369.4,252.905,365.29Z" transform="translate(-47.651 -89.459)"/><path class="g" d="M299.984,407.185c0,9.222-6.526,12.981-14.542,8.3S270.9,399.6,270.9,390.374s6.526-12.981,14.542-8.3S299.984,397.964,299.984,407.185Z" transform="translate(-112.535 -173.917)"/><path class="h" d="M325.884,422.185c0,9.222-6.526,12.981-14.542,8.3S296.8,414.6,296.8,405.374s6.526-12.981,14.542-8.3C319.358,401.685,325.884,412.964,325.884,422.185Z" transform="translate(-120.062 -178.277)"/><g transform="translate(8.618 84.798)"><path class="i" d="M62.567,216.377l2.625,1.49a3.13,3.13,0,0,1,1.135,1.206,3.163,3.163,0,0,1,.426,1.915v4.185a1.912,1.912,0,0,1-.355,1.348c-.355.355-.709.213-1.206-.071l-3.121-1.844a3.768,3.768,0,0,1-.922-.922l-.567-.638a2.365,2.365,0,0,1-.78-1.561c0-.5.284-.78.709-.567a1.2,1.2,0,0,1,.426.426l.426.5c.213.213.5.709.78.851l3.263,1.915v-4.682l-4.185-2.412V209l4.895,2.837a1.631,1.631,0,0,1,.709,1.419c0,.709-.355.78-.709.567l-3.476-1.986v4.54Z" transform="translate(-59.8 -209)"/><path class="j" d="M75.619,218.974c0,.426-.284.851-.709.568a1.852,1.852,0,0,1-.709-1.419v-.993c0-.426.284-.851.709-.567l6.313,3.618v5.675c0,.709,0,.78-.355.993l-1.986,1.206c-.355.213-.426.284-.426.922v3.76c0,.638-.213.851-.709.568a1.5,1.5,0,0,1-.709-1.419V227.2c0-.638,0-.709.355-.922l1.986-1.206c.5-.284.426-.284.426-1.135v-2.7Z" transform="translate(-63.985 -211.171)"/><path class="k" d="M90.019,238.606l4.895,2.837a1.631,1.631,0,0,1,.709,1.419c0,.709-.355.78-.709.568L88.6,239.812V233.5c0-1.49.568-1.915,1.632-1.277l3.972,2.341V229.88l-4.895-2.837a1.631,1.631,0,0,1-.709-1.419c0-.709.355-.78.709-.567l4.753,2.7a2.691,2.691,0,0,1,1.135,1.206,3.38,3.38,0,0,1,.426,1.986v3.972c0,.709-.071,1.206-.426,1.49a.986.986,0,0,1-1.135-.142l-4.043-2.341Z" transform="translate(-68.17 -213.636)"/><path class="l" d="M105.837,241.377l2.625,1.49a3.13,3.13,0,0,1,1.135,1.206,3.163,3.163,0,0,1,.426,1.915v4.185a1.912,1.912,0,0,1-.355,1.348c-.355.355-.709.213-1.206-.071l-3.192-1.844a3.768,3.768,0,0,1-.922-.922l-.567-.638a2.365,2.365,0,0,1-.78-1.561c0-.5.284-.78.709-.567a1.2,1.2,0,0,1,.426.426l.426.5c.213.213.5.709.78.851l3.263,1.915v-4.682l-4.185-2.412V234l4.895,2.837a1.631,1.631,0,0,1,.709,1.419c0,.709-.355.78-.709.567l-3.476-1.986Z" transform="translate(-72.355 -216.266)"/><path class="m" d="M133.319,252.274c0,.426-.284.851-.709.568a1.852,1.852,0,0,1-.709-1.419v-.993c0-.426.284-.851.709-.567l6.313,3.618v5.675c0,.709,0,.78-.355.993l-1.986,1.206c-.355.213-.426.284-.426.922v3.76c0,.638-.213.851-.709.568a1.5,1.5,0,0,1-.709-1.419V260.5c0-.638,0-.709.355-.922l1.986-1.206c.5-.284.426-.284.426-1.135v-2.7Z" transform="translate(-80.755 -220.849)"/><path class="n" d="M147.819,271.906l4.895,2.837a1.631,1.631,0,0,1,.709,1.419c0,.709-.355.78-.709.567l-6.313-3.618V266.8c0-1.49.567-1.915,1.632-1.277L152,267.862V263.18l-4.895-2.837a1.631,1.631,0,0,1-.709-1.419c0-.709.355-.78.709-.567l4.753,2.7A2.691,2.691,0,0,1,153,262.258a3.379,3.379,0,0,1,.426,1.986v3.972c0,.709-.071,1.206-.426,1.49a.986.986,0,0,1-1.135-.142l-4.043-2.341v4.682Z" transform="translate(-84.969 -223.314)"/><path class="o" d="M161.509,268.543a1.631,1.631,0,0,1-.709-1.419c0-.709.355-.78.709-.568l4.895,2.837a3.446,3.446,0,0,1,1.419,2.767v3.76c0,.78-.142,1.277-.567,1.561a4.244,4.244,0,0,1,.567,2.2v3.76c0,1.135-.638,1.561-1.419,1.135l-4.895-2.837a1.631,1.631,0,0,1-.709-1.419c0-.709.355-.78.709-.568l4.895,2.837v-3.263c0-1.064-.284-1.631-.709-1.844l-2.767-1.631a1.631,1.631,0,0,1-.709-1.419c0-.709.355-.78.709-.568l2.767,1.632c.426.213.709.071.709-.993v-3.263Z" transform="translate(-89.154 -225.697)"/><path class="p" d="M180.8,277.95a3.446,3.446,0,0,1,1.419,2.767v11.279c0,1.064-.638,1.561-1.419,1.135l-4.185-2.412a3.555,3.555,0,0,1-1.419-2.767V276.673c0-1.064.638-1.561,1.419-1.135Zm0,13.194V279.865l-4.185-2.412v11.279Z" transform="translate(-93.339 -228.294)"/><path class="q" d="M205.519,293.974c0,.426-.284.851-.709.567a1.852,1.852,0,0,1-.709-1.419v-.993c0-.426.284-.851.709-.568l6.313,3.618v5.675c0,.709,0,.78-.355.993l-1.986,1.206c-.355.213-.426.284-.426.922v3.76c0,.638-.213.851-.709.567a1.5,1.5,0,0,1-.709-1.419V302.2c0-.638,0-.709.355-.922l1.986-1.206c.5-.284.426-.284.426-1.135v-2.7Z" transform="translate(-101.738 -232.969)"/><path class="r" d="M219.919,302.374c0,.426-.284.851-.709.567a1.852,1.852,0,0,1-.709-1.419v-.993c0-.426.284-.851.709-.568l6.313,3.618v5.675c0,.709,0,.78-.355.993l-1.986,1.206c-.355.213-.426.284-.426.922v3.76c0,.638-.213.851-.709.567a1.5,1.5,0,0,1-.709-1.419V310.6c0-.638,0-.709.355-.922l1.986-1.206c.5-.284.426-.284.426-1.135v-2.7Z" transform="translate(-105.924 -235.41)"/><path class="s" d="M234.419,310.674c0,.426-.284.851-.709.567a1.852,1.852,0,0,1-.709-1.419v-.993c0-.426.284-.851.709-.567l6.313,3.618v5.675c0,.709,0,.78-.355.993l-1.986,1.206c-.355.213-.426.284-.426.922v3.76c0,.638-.213.851-.709.567a1.5,1.5,0,0,1-.709-1.419V318.9c0-.638,0-.709.355-.922l1.986-1.206c.5-.284.426-.284.426-1.135v-2.7Z" transform="translate(-110.138 -237.822)"/><path class="t" d="M248.819,318.974c0,.426-.284.851-.709.567a1.852,1.852,0,0,1-.709-1.419v-.993c0-.426.284-.851.709-.568l6.313,3.618v5.675c0,.709,0,.78-.355.993l-1.986,1.206c-.355.213-.426.284-.426.922v3.76c0,.638-.213.851-.709.568a1.5,1.5,0,0,1-.709-1.419V327.2c0-.638,0-.709.355-.922l1.986-1.206c.5-.284.426-.284.426-1.135v-2.7Z" transform="translate(-114.323 -240.235)"/><path class="u" d="M281.9,336.25a3.446,3.446,0,0,1,1.419,2.766v11.279c0,1.064-.638,1.561-1.419,1.135l-4.185-2.412a3.555,3.555,0,0,1-1.419-2.767V334.973c0-1.064.638-1.561,1.419-1.135Zm0,13.265V338.236l-4.185-2.412V347.1Z" transform="translate(-122.722 -245.238)"/><path class="v" d="M296.3,344.65a3.446,3.446,0,0,1,1.419,2.767v11.279c0,1.064-.638,1.561-1.419,1.135l-4.185-2.412a3.555,3.555,0,0,1-1.419-2.767V343.373c0-1.064.638-1.561,1.419-1.135Zm0,13.194V346.565l-4.185-2.412v11.279Z" transform="translate(-126.907 -247.679)"/><path class="w" d="M310.7,352.95a3.446,3.446,0,0,1,1.419,2.767V367c0,1.064-.638,1.561-1.419,1.135l-4.185-2.412a3.555,3.555,0,0,1-1.419-2.767V351.673c0-1.064.638-1.561,1.419-1.135Zm0,13.194V354.865l-4.185-2.412v11.279Z" transform="translate(-131.093 -250.091)"/><path class="x" d="M325.2,361.25a3.446,3.446,0,0,1,1.419,2.766v11.279c0,1.064-.638,1.561-1.419,1.135l-4.185-2.412a3.555,3.555,0,0,1-1.419-2.767V359.973c0-1.064.638-1.561,1.419-1.135Zm0,13.265V363.236l-4.185-2.412V372.1Z" transform="translate(-135.307 -252.504)"/></g><g transform="translate(7.767 84.869)"><path class="y" d="M61.437,216.477l2.625,1.49a3.13,3.13,0,0,1,1.135,1.206,3.163,3.163,0,0,1,.426,1.915v4.185a1.912,1.912,0,0,1-.355,1.348c-.355.355-.709.213-1.206-.071l-3.192-1.844a3.768,3.768,0,0,1-.922-.922l-.567-.638a2.365,2.365,0,0,1-.78-1.561c0-.5.284-.78.709-.567a1.2,1.2,0,0,1,.426.426l.426.5c.213.213.5.709.78.851l3.263,1.915v-4.682l-4.185-2.412V209.1l4.895,2.837a1.631,1.631,0,0,1,.709,1.419c0,.709-.355.78-.709.567l-3.476-1.986v4.54Z" transform="translate(-58.6 -209.1)"/><path class="y" d="M74.519,219.074c0,.426-.284.851-.709.568a1.852,1.852,0,0,1-.709-1.419v-.993c0-.426.284-.851.709-.567l6.313,3.618v5.675c0,.709,0,.78-.355.993l-1.986,1.206c-.355.213-.426.284-.426.922v3.76c0,.638-.213.851-.709.567a1.5,1.5,0,0,1-.709-1.419V227.3c0-.638,0-.709.355-.922l1.986-1.206c.5-.284.426-.284.426-1.135v-2.7Z" transform="translate(-62.814 -211.271)"/><path class="y" d="M88.919,238.706l4.895,2.837a1.631,1.631,0,0,1,.709,1.419c0,.709-.355.78-.709.568L87.5,239.912V233.6c0-1.49.567-1.915,1.632-1.277l3.972,2.341V229.98l-4.895-2.837a1.631,1.631,0,0,1-.709-1.419c0-.709.355-.78.709-.568l4.753,2.7a2.691,2.691,0,0,1,1.135,1.206,3.38,3.38,0,0,1,.426,1.986v3.972c0,.709-.071,1.206-.426,1.49a.986.986,0,0,1-1.135-.142l-4.043-2.341Z" transform="translate(-66.999 -213.736)"/><path class="y" d="M104.837,241.477l2.625,1.49a3.13,3.13,0,0,1,1.135,1.206,3.163,3.163,0,0,1,.426,1.915v4.185a1.912,1.912,0,0,1-.355,1.348c-.355.355-.709.213-1.206-.071l-3.192-1.844a3.768,3.768,0,0,1-.922-.922l-.567-.638a2.364,2.364,0,0,1-.78-1.561c0-.5.284-.78.709-.568a1.2,1.2,0,0,1,.426.426l.426.5c.213.213.5.709.78.851l3.263,1.915v-4.682l-4.185-2.412V234.1l4.895,2.837a1.631,1.631,0,0,1,.709,1.419c0,.709-.355.78-.709.567l-3.476-1.986v4.54Z" transform="translate(-71.214 -216.366)"/><path class="y" d="M132.219,252.374c0,.426-.284.851-.709.567a1.852,1.852,0,0,1-.709-1.419v-.993c0-.426.284-.851.709-.567l6.313,3.618v5.675c0,.709,0,.78-.355.993l-1.986,1.206c-.355.213-.426.284-.426.922v3.76c0,.638-.213.851-.709.568a1.5,1.5,0,0,1-.709-1.419V260.6c0-.638,0-.709.355-.922l1.986-1.206c.5-.284.426-.284.426-1.135v-2.7Z" transform="translate(-79.584 -220.949)"/><path class="y" d="M146.719,272.006l4.895,2.837a1.631,1.631,0,0,1,.709,1.419c0,.709-.355.78-.709.568l-6.313-3.618V266.9c0-1.49.567-1.915,1.632-1.277l3.972,2.341V263.28l-4.895-2.837a1.631,1.631,0,0,1-.709-1.419c0-.709.355-.78.709-.567l4.753,2.7a2.691,2.691,0,0,1,1.135,1.206,3.379,3.379,0,0,1,.426,1.986v3.972c0,.709-.071,1.206-.426,1.49a.986.986,0,0,1-1.135-.142l-4.043-2.341v4.682Z" transform="translate(-83.798 -223.414)"/><path class="y" d="M160.409,268.643a1.631,1.631,0,0,1-.709-1.419c0-.709.355-.78.709-.567l4.895,2.837a3.446,3.446,0,0,1,1.419,2.766v3.76c0,.78-.142,1.277-.568,1.561a4.244,4.244,0,0,1,.568,2.2v3.76c0,1.135-.638,1.561-1.419,1.135l-4.895-2.837a1.631,1.631,0,0,1-.709-1.419c0-.709.355-.78.709-.568l4.895,2.837v-3.263c0-1.064-.284-1.632-.709-1.844l-2.767-1.632a1.631,1.631,0,0,1-.709-1.419c0-.709.355-.78.709-.567l2.767,1.632c.426.213.709.071.709-.993v-3.263Z" transform="translate(-87.983 -225.797)"/><path class="y" d="M179.7,278.05a3.446,3.446,0,0,1,1.419,2.767V292.1c0,1.064-.638,1.561-1.419,1.135l-4.185-2.412a3.555,3.555,0,0,1-1.419-2.767V276.773c0-1.064.638-1.561,1.419-1.135Zm0,13.194V279.965l-4.185-2.412v11.279Z" transform="translate(-92.168 -228.394)"/><path class="y" d="M204.419,294.074c0,.426-.284.851-.709.568a1.852,1.852,0,0,1-.709-1.419v-.993c0-.426.284-.851.709-.567l6.313,3.618v5.675c0,.709,0,.78-.355.993l-1.986,1.206c-.355.213-.426.284-.426.922v3.76c0,.638-.213.851-.709.568a1.5,1.5,0,0,1-.709-1.419V302.3c0-.638,0-.709.355-.922l1.986-1.206c.5-.284.426-.284.426-1.135v-2.7Z" transform="translate(-100.568 -233.069)"/><path class="y" d="M218.919,302.374c0,.426-.284.851-.709.567a1.852,1.852,0,0,1-.709-1.419v-.993c0-.426.284-.851.709-.568l6.313,3.618v5.675c0,.709,0,.78-.355.993l-1.986,1.206c-.355.213-.426.284-.426.922v3.76c0,.638-.213.851-.709.567a1.5,1.5,0,0,1-.709-1.419V310.6c0-.638,0-.709.355-.922l1.986-1.206c.5-.284.426-.284.426-1.135v-2.7Z" transform="translate(-104.782 -235.481)"/><path class="y" d="M233.319,310.774c0,.426-.284.851-.709.568a1.852,1.852,0,0,1-.709-1.419v-.993c0-.426.284-.851.709-.567l6.313,3.618v5.675c0,.709,0,.78-.355.993l-1.986,1.206c-.355.213-.426.284-.426.922v3.76c0,.638-.213.851-.709.567a1.5,1.5,0,0,1-.709-1.419V319c0-.638,0-.709.355-.922l1.986-1.206c.5-.284.426-.284.426-1.135v-2.7Z" transform="translate(-108.967 -237.922)"/><path class="y" d="M247.719,319.074c0,.426-.284.851-.709.568a1.852,1.852,0,0,1-.709-1.419v-.993c0-.426.284-.851.709-.567l6.313,3.618v5.675c0,.709,0,.78-.355.993l-1.986,1.206c-.355.213-.426.284-.426.922v3.76c0,.638-.213.851-.709.568a1.5,1.5,0,0,1-.709-1.419V327.3c0-.638,0-.709.355-.922l1.986-1.206c.5-.284.426-.284.426-1.135v-2.7Z" transform="translate(-113.152 -240.335)"/><path class="y" d="M280.8,336.35a3.446,3.446,0,0,1,1.419,2.767v11.279c0,1.064-.638,1.561-1.419,1.135l-4.185-2.412a3.555,3.555,0,0,1-1.419-2.767V335.073c0-1.064.638-1.561,1.419-1.135Zm0,13.194V338.265l-4.185-2.412v11.279Z" transform="translate(-121.551 -245.338)"/><path class="y" d="M295.2,344.75a3.446,3.446,0,0,1,1.419,2.767v11.279c0,1.064-.638,1.561-1.419,1.135l-4.185-2.412a3.555,3.555,0,0,1-1.419-2.767V343.473c0-1.064.638-1.561,1.419-1.135Zm0,13.194V346.665l-4.185-2.412v11.279Z" transform="translate(-125.736 -247.779)"/><path class="y" d="M309.7,353.05a3.446,3.446,0,0,1,1.419,2.767V367.1c0,1.064-.638,1.561-1.419,1.135l-4.185-2.412a3.555,3.555,0,0,1-1.419-2.767V351.773c0-1.064.638-1.561,1.419-1.135Zm0,13.194V354.965l-4.185-2.412v11.279Z" transform="translate(-129.951 -250.191)"/><path class="y" d="M324.1,361.35a3.446,3.446,0,0,1,1.419,2.767v11.279c0,1.064-.638,1.561-1.419,1.135l-4.185-2.412a3.555,3.555,0,0,1-1.419-2.767V360.073c0-1.064.638-1.561,1.419-1.135Zm0,13.194V363.265l-4.185-2.412v11.279Z" transform="translate(-134.136 -252.604)"/></g><g transform="translate(8.76 53.516)"><path class="z" d="M89.155,198.36v-7.377L60,174.1v7.448Z" transform="translate(-60 -167.575)"/><path class="aa" d="M89.184,186.536v-.426a13.632,13.632,0,0,0-6.1-10.57L66.2,165.752c-3.4-1.986-6.1-.355-6.1,3.476v.426Z" transform="translate(-60.029 -164.902)"/><path class="ab" d="M60,187.1v.213a13.632,13.632,0,0,0,6.1,10.57l16.883,9.789c3.4,1.986,6.1.355,6.1-3.476v-.213Z" transform="translate(-60 -171.353)"/></g><g transform="translate(8.76 53.539)"><path class="ac" d="M60,187.384c0,.284.071.567.071.851l28.091,16.244v.213a4.388,4.388,0,0,1-1.49,3.689c1.49-.426,2.483-1.844,2.483-4.185v-.213L60,187.1Z" transform="translate(-60 -171.376)"/><path class="ad" d="M60,175.164l28.162,16.244v6.384l.993.568v-7.377L60,174.1Z" transform="translate(-60 -167.598)"/><path class="ae" d="M83.594,175.55l-16.883-9.789c-1.844-1.064-3.476-1.064-4.611-.213a4.771,4.771,0,0,1,3.618.709L82.6,176.047a13.879,13.879,0,0,1,6.1,9.86l1.064.567v-.426A13.389,13.389,0,0,0,83.594,175.55Z" transform="translate(-60.61 -164.934)"/></g><g transform="translate(9.256 128.353)"><path class="y" d="M62.757,275.578V270.4l.922.5v5.249c0,1.844-.709,2.341-2.057,1.561A5.205,5.205,0,0,1,60.7,277l.142-.78a3.148,3.148,0,0,0,.78.567c.426.213.709.284.922.142A2.528,2.528,0,0,0,62.757,275.578Z" transform="translate(-60.7 -270.4)"/><path class="y" d="M68.812,276.843a4.556,4.556,0,0,1,1.7,1.773,5.176,5.176,0,0,1,.638,2.483c0,.993-.213,1.561-.709,1.773a1.887,1.887,0,0,1-1.7-.213,5.116,5.116,0,0,1-1.7-1.773A5.176,5.176,0,0,1,66.4,278.4c0-.922.213-1.49.709-1.773Q67.748,276.2,68.812,276.843Zm1.064,2.057a2.5,2.5,0,0,0-1.135-1.277c-.5-.284-.851-.284-1.135,0a1.722,1.722,0,0,0-.355,1.277,3.846,3.846,0,0,0,.426,1.773,2.576,2.576,0,0,0,1.064,1.206.959.959,0,0,0,1.064,0,1.806,1.806,0,0,0,.426-1.348A2.854,2.854,0,0,0,69.876,278.9Z" transform="translate(-62.357 -272.161)"/><path class="y" d="M74.7,284.529V276.3l.922.5v3.547h0a.745.745,0,0,1,.638-.355,2.45,2.45,0,0,1,.922.213c.142.071.284.213.426.284a3.087,3.087,0,0,1,.426.5l.426.638a2.393,2.393,0,0,1,.284.851,5.476,5.476,0,0,1,.142,1.064v3.334l-.922-.5v-3.192a2.879,2.879,0,0,0-.284-1.348,2.156,2.156,0,0,0-.851-.922.921.921,0,0,0-.709-.142.639.639,0,0,0-.426.426c-.071.071-.071.284-.071.426v3.4Z" transform="translate(-64.769 -272.115)"/><path class="y" d="M82.671,290.175v-4.114A10.017,10.017,0,0,0,82.6,284.5l.78.426.071.993h0a.745.745,0,0,1,.638-.355,1.436,1.436,0,0,1,.993.284c.213.142.355.284.567.426a6.2,6.2,0,0,1,.567.709,2.487,2.487,0,0,1,.426.993,3.928,3.928,0,0,1,.142,1.277v3.334l-.922-.5v-3.263a2.708,2.708,0,0,0-1.135-2.341.921.921,0,0,0-.709-.142.622.622,0,0,0-.426.5c-.071.071-.071.284-.071.426v3.4Z" transform="translate(-67.065 -274.498)"/><path class="y" d="M93.2,295.27l.213-.709a5.789,5.789,0,0,0,1.561,1.419,1.06,1.06,0,0,0,1.064.213c.284-.071.355-.355.355-.78a2,2,0,0,0-.284-1.064,4.652,4.652,0,0,0-.993-1.206,4.874,4.874,0,0,1-1.773-3.263,1.178,1.178,0,0,1,.638-1.206,1.918,1.918,0,0,1,1.632.355A4.434,4.434,0,0,1,97.1,290.3l-.213.709a4.9,4.9,0,0,0-1.277-1.135,1.466,1.466,0,0,0-.993-.213.745.745,0,0,0-.355.638,2,2,0,0,0,.284,1.064,7.143,7.143,0,0,0,1.064,1.277,8.785,8.785,0,0,1,1.348,1.7,3.3,3.3,0,0,1,.426,1.632,1.287,1.287,0,0,1-.638,1.277c-.426.213-.993.071-1.773-.355a8.6,8.6,0,0,1-.993-.709A7.727,7.727,0,0,1,93.2,295.27Z" transform="translate(-70.146 -275.691)"/><path class="y" d="M100.671,300.575v-4.114a13.162,13.162,0,0,0-.071-1.561l.78.426.071.922h0c.355-.5.851-.568,1.561-.142a2.255,2.255,0,0,1,.851.78,3.26,3.26,0,0,1,.5,1.135h0a.881.881,0,0,1,.567-.426,1.588,1.588,0,0,1,1.064.213,1.488,1.488,0,0,1,.567.426,5.005,5.005,0,0,1,.5.638,6.917,6.917,0,0,1,.426.993,7.818,7.818,0,0,1,.142,1.277v3.334l-.851-.5v-3.192a2.813,2.813,0,0,0-.284-1.419,2.022,2.022,0,0,0-.78-.922,1.054,1.054,0,0,0-.638-.142.64.64,0,0,0-.426.426,1.052,1.052,0,0,0-.071.5V302.7l-.851-.5v-3.4a2.429,2.429,0,0,0-.284-1.277,1.8,1.8,0,0,0-.78-.851c-.284-.142-.5-.213-.709-.071a.622.622,0,0,0-.426.5c-.071.071-.071.284-.071.426v3.4Z" transform="translate(-72.296 -277.521)"/><path class="y" d="M112.63,298.981c.071-.071.213-.071.426.071a1.2,1.2,0,0,1,.426.426.853.853,0,0,1,.142.567.417.417,0,0,1-.142.355c-.071.071-.213.071-.426-.071a1.2,1.2,0,0,1-.426-.426,1.336,1.336,0,0,1-.142-.567A.259.259,0,0,1,112.63,298.981Zm.851,8.158-.922-.5v-5.6l.922.5Z" transform="translate(-75.743 -278.693)"/><path class="y" d="M115.851,302.5l.851.213v1.348l1.277.709v.78l-1.277-.709v3.05a1.657,1.657,0,0,0,.638,1.49.943.943,0,0,0,.5.213l.071.78a5.392,5.392,0,0,1-.78-.284,2.667,2.667,0,0,1-.993-.993,3.8,3.8,0,0,1-.355-1.7v-3.121l-.78-.426v-.78l.78.426V302.5Z" transform="translate(-76.481 -279.729)"/><path class="y" d="M120.7,311.029V302.8l.922.5v3.547h0a.745.745,0,0,1,.638-.355,2.449,2.449,0,0,1,.922.213c.142.071.284.213.426.284a3.083,3.083,0,0,1,.426.5l.426.638a2.393,2.393,0,0,1,.284.851,5.476,5.476,0,0,1,.142,1.064v3.334l-.922-.5V309.61a2.879,2.879,0,0,0-.284-1.348,2.156,2.156,0,0,0-.851-.922.921.921,0,0,0-.709-.142.64.64,0,0,0-.426.426c-.071.071-.071.284-.071.426v3.4Z" transform="translate(-78.138 -279.817)"/></g><g transform="translate(126.869 93.728)"><path class="a" d="M234.729,235.145l.284,1.49a6.852,6.852,0,0,1-2.979-1.064,10.673,10.673,0,0,1-3.972-3.972,11.176,11.176,0,0,1-1.561-5.675c0-1.986.567-3.334,1.632-3.972s2.483-.426,4.256.567a8.178,8.178,0,0,1,2.625,2.128l-.355,1.135a8.347,8.347,0,0,0-2.27-1.844q-2.022-1.171-3.192-.426c-.78.5-1.206,1.561-1.206,3.192a8.655,8.655,0,0,0,1.135,4.4,8.43,8.43,0,0,0,3.121,3.192A5.675,5.675,0,0,0,234.729,235.145Z" transform="translate(-226.5 -221.588)"/><path class="a" d="M240.871,241.022v-6.313c0-1.135,0-2.128-.071-2.908l1.277.709.071,1.844h.071a1.519,1.519,0,0,1,.851-.993,1.585,1.585,0,0,1,1.348.213,4.2,4.2,0,0,0,.426.284v1.561a4.837,4.837,0,0,0-.5-.355,1.228,1.228,0,0,0-1.277-.142,1.41,1.41,0,0,0-.638,1.135c0,.213-.071.426-.071.78v4.895Z" transform="translate(-230.656 -224.556)"/><path class="a" d="M254.494,245.078l-5.675-3.263a5.308,5.308,0,0,0,.78,2.837,4.7,4.7,0,0,0,1.986,1.915,4.587,4.587,0,0,0,2.2.78l.284,1.348a6.324,6.324,0,0,1-2.7-.993,7.944,7.944,0,0,1-3.972-6.881,3.619,3.619,0,0,1,1.064-2.979c.709-.568,1.632-.5,2.767.142a5.915,5.915,0,0,1,1.632,1.348,11.179,11.179,0,0,1,1.064,1.7,7.72,7.72,0,0,1,.5,1.7,10.583,10.583,0,0,1,.142,1.49A2.447,2.447,0,0,1,254.494,245.078Zm-5.6-4.4,4.256,2.483a6.289,6.289,0,0,0-.426-2.128,3.462,3.462,0,0,0-1.561-1.773c-.709-.355-1.206-.426-1.561-.071A1.88,1.88,0,0,0,248.89,240.68Z" transform="translate(-232.574 -226.2)"/><path class="a" d="M265.3,241.2l1.419.851v11.137c0,.78,0,1.561.071,2.412l-1.277-.78-.071-1.632h-.071a1.289,1.289,0,0,1-1.064.709,2.562,2.562,0,0,1-1.632-.426,7.08,7.08,0,0,1-2.483-2.7,8.671,8.671,0,0,1-.993-3.972q0-2.235,1.064-2.979a2.262,2.262,0,0,1,2.554.142,6.453,6.453,0,0,1,1.49,1.277,5.677,5.677,0,0,1,.922,1.49h0V241.2Zm0,9.647v-1.632a2.187,2.187,0,0,0-.071-.709,5.473,5.473,0,0,0-.709-1.773,4.075,4.075,0,0,0-1.348-1.348,1.378,1.378,0,0,0-1.773,0,3.017,3.017,0,0,0-.638,2.2,6.1,6.1,0,0,0,.638,2.767,4.076,4.076,0,0,0,1.773,1.986,1.585,1.585,0,0,0,1.348.213,1.281,1.281,0,0,0,.78-.993A2.366,2.366,0,0,1,265.3,250.847Z" transform="translate(-236.004 -227.288)"/><path class="a" d="M273.284,245.781a.706.706,0,0,1,.638.071,1.392,1.392,0,0,1,.638.638,2.012,2.012,0,0,1,.284.922c0,.284-.071.5-.284.567a.871.871,0,0,1-.709-.071,1.392,1.392,0,0,1-.638-.638,1.889,1.889,0,0,1-.213-.851C273,246.065,273.071,245.923,273.284,245.781Zm1.348,13.336-1.49-.851v-9.222l1.49.851Z" transform="translate(-240.014 -228.606)"/><path class="a" d="M278.677,251.5l1.419.355v2.2l2.057,1.206v1.277l-2.057-1.206V260.3a2.553,2.553,0,0,0,1.064,2.412,1.966,1.966,0,0,0,.851.355l.071,1.348a4.229,4.229,0,0,1-1.277-.5,3.482,3.482,0,0,1-1.561-1.632,6.171,6.171,0,0,1-.568-2.767v-5.036l-1.277-.709v-1.277l1.277.709Z" transform="translate(-241.293 -230.282)"/><path class="a" d="M298.729,272.046l.284,1.49a6.853,6.853,0,0,1-2.979-1.064,10.673,10.673,0,0,1-3.972-3.972,11.176,11.176,0,0,1-1.561-5.675c0-1.986.568-3.334,1.632-3.972s2.483-.426,4.256.567a8.178,8.178,0,0,1,2.625,2.128l-.355,1.135a8.347,8.347,0,0,0-2.27-1.844q-2.022-1.171-3.192-.426c-.78.5-1.206,1.561-1.206,3.192a8.655,8.655,0,0,0,1.135,4.4,8.429,8.429,0,0,0,3.121,3.192A5.675,5.675,0,0,0,298.729,272.046Z" transform="translate(-245.101 -232.313)"/><path class="a" d="M310.271,275.737v3.476a19.333,19.333,0,0,0,.142,2.27l-1.277-.78-.142-1.206h-.071a1.437,1.437,0,0,1-.993.426,2.94,2.94,0,0,1-1.419-.426,4.446,4.446,0,0,1-1.773-1.844,4.6,4.6,0,0,1-.638-2.27c0-1.135.426-1.7,1.277-1.844s2.057.284,3.547,1.206v-.213a2.66,2.66,0,0,0-.071-.709c-.071-.213-.142-.5-.213-.78a3.249,3.249,0,0,0-.568-.922,3.729,3.729,0,0,0-.993-.78,2.846,2.846,0,0,0-2.128-.5l-.355-1.348a4.581,4.581,0,0,1,2.625.709,5.44,5.44,0,0,1,2.341,2.412A7.732,7.732,0,0,1,310.271,275.737Zm-1.419,1.7v-1.632c-2.27-1.348-3.4-1.348-3.4.142a3.229,3.229,0,0,0,.355,1.419,2.667,2.667,0,0,0,.993.993,1.841,1.841,0,0,0,1.277.284,1.02,1.02,0,0,0,.709-.709A1.052,1.052,0,0,0,308.853,277.44Z" transform="translate(-249.053 -235.508)"/><path class="a" d="M316.071,284.422v-6.313c0-1.135,0-2.128-.071-2.908l1.277.709.071,1.844h.071a1.519,1.519,0,0,1,.851-.993,1.585,1.585,0,0,1,1.348.213,4.19,4.19,0,0,0,.426.284v1.561a4.835,4.835,0,0,0-.5-.355,1.228,1.228,0,0,0-1.277-.142,1.41,1.41,0,0,0-.638,1.135c0,.213-.071.426-.071.78v4.895Z" transform="translate(-252.512 -237.17)"/><path class="a" d="M328.7,277.9l1.419.851v11.137c0,.78,0,1.561.071,2.412l-1.277-.78-.071-1.632h-.071a1.289,1.289,0,0,1-1.064.709,2.563,2.563,0,0,1-1.632-.426,7.08,7.08,0,0,1-2.483-2.7,8.671,8.671,0,0,1-.993-3.972q0-2.234,1.064-2.979a2.262,2.262,0,0,1,2.554.142,6.451,6.451,0,0,1,1.49,1.277,5.676,5.676,0,0,1,.922,1.49h0V277.9Zm0,9.647v-1.632a2.187,2.187,0,0,0-.071-.709,5.472,5.472,0,0,0-.709-1.773,4.074,4.074,0,0,0-1.348-1.348,1.377,1.377,0,0,0-1.773,0,3.016,3.016,0,0,0-.638,2.2,6.1,6.1,0,0,0,.638,2.767,4.076,4.076,0,0,0,1.773,1.986,1.585,1.585,0,0,0,1.348.213,1.281,1.281,0,0,0,.78-.993Z" transform="translate(-254.43 -237.954)"/></g><g transform="translate(89.273 174.533)"><path class="y" d="M174.777,342.948v-6.6h0l-1.135.071-.142-.851,1.419-.071.78.426v7.59Z" transform="translate(-173.5 -335.5)"/><path class="y" d="M182.077,347.148v-6.6h0l-1.135.071-.142-.851,1.419-.071.78.426v7.59Z" transform="translate(-175.622 -336.721)"/><path class="y" d="M187.209,350.736l-.709-.426,2.837-6.81.709.426Z" transform="translate(-177.278 -337.825)"/><path class="y" d="M196.385,355.3l-4.185-2.412v-.638l.709-.355a9.085,9.085,0,0,0,1.915-1.206,1.816,1.816,0,0,0,.567-1.348,2.332,2.332,0,0,0-.284-1.206,2.666,2.666,0,0,0-.993-.993A1.463,1.463,0,0,0,192.7,347l-.284-.851a2.025,2.025,0,0,1,1.844.284,4.278,4.278,0,0,1,1.49,1.49,3.8,3.8,0,0,1,.5,1.844,2.337,2.337,0,0,1-.568,1.561,7.6,7.6,0,0,1-1.7,1.206l-.5.284h0l2.979,1.7v.78Z" transform="translate(-178.935 -338.562)"/><path class="y" d="M199.962,350.854a1.274,1.274,0,0,1,1.7-.071A4.373,4.373,0,0,1,203.3,352.7a8.445,8.445,0,0,1,.567,3.121,4.628,4.628,0,0,1-.567,2.625,1.274,1.274,0,0,1-1.7.071,3.6,3.6,0,0,1-1.561-1.915,8.811,8.811,0,0,1-.638-3.192A3.4,3.4,0,0,1,199.962,350.854Zm1.632.638a.667.667,0,0,0-.993.284,5.008,5.008,0,0,0-.355,2.128,8.361,8.361,0,0,0,.355,2.483,2.065,2.065,0,0,0,.993,1.348.619.619,0,0,0,.993-.284,5.007,5.007,0,0,0,.355-2.128,8.36,8.36,0,0,0-.355-2.483A2.808,2.808,0,0,0,201.594,351.492Z" transform="translate(-181.022 -339.859)"/></g></g><g transform="translate(156.521 0)"><path class="af" d="M575.9,942.074Z" transform="translate(-357.699 -300.119)"/><path class="ag" d="M469.051,674.758,302.35,578.5c-18.8-10.853-34.05-40.008-34.05-65.049V69.385c0-25.112,23.764-39.441,42.562-28.587l166.7,96.261c18.8,10.853,34.05,40.008,34.05,65.049V646.17C511.683,671.282,487.92,685.682,469.051,674.758Z" transform="translate(-268.3 -37.13)"/><path class="ah" d="M270.6,522.151V77.591c0-21.99,13.336-32.063,29.864-22.558L466.314,150.8c16.457,9.506,29.864,35.043,29.864,57.033V652.461c0,21.99-13.336,32.063-29.864,22.558l-165.85-95.764C284.007,569.678,270.6,544.141,270.6,522.151Z" transform="translate(-268.968 -41.293)"/><path class="ai" d="M308.251,74.173C295.27,66.654,284.7,72.684,284.7,87.58V534.907c0,14.9,10.57,33.127,23.551,40.647l158.543,91.579c12.981,7.519,23.551,1.49,23.551-13.407v-447.4c0-14.9-10.57-33.127-23.551-40.647Z" transform="translate(-273.066 -46.955)"/></g><g transform="translate(168.154 23.981)"><path class="aj" d="M284.7,399.931,490.345,518.679v-187.2L284.7,212.8Z" transform="translate(-284.7 -112.166)"/><path class="ak" d="M284.7,558.025,490.345,676.773v-2.625L284.7,555.4Z" transform="translate(-284.7 -211.738)"/><path class="ak" d="M284.7,655.8,490.345,774.472v-2.625L284.7,653.1Z" transform="translate(-284.7 -240.132)"/><path class="ak" d="M284.7,726.325,490.345,845.073v-2.7L284.7,723.7Z" transform="translate(-284.7 -260.651)"/><g transform="translate(0.142 119.503)"><path class="al" d="M404.286,308.35,284.9,239.4V370.987l119.386,68.95c5.675,3.263,10.286-.213,10.286-7.732V327.929C414.572,320.41,409.961,311.613,404.286,308.35Z" transform="translate(-284.9 -239.4)"/><path class="am" d="M404.286,308.35,284.9,239.4V370.987l119.386,68.95c5.675,3.263,10.286-.213,10.286-7.732V327.929C414.572,320.41,409.961,311.613,404.286,308.35Z" transform="translate(-284.9 -239.4)"/><path class="an" d="M510.986,370.6c-5.675-3.263-10.286.213-10.286,7.732V482.536c0,7.59,4.611,16.315,10.286,19.649l41.853,24.189V394.716Z" transform="translate(-347.619 -277.174)"/><path class="ao" d="M428.093,467.393c0,7.519-5.32,10.5-11.846,6.739S404.4,461.222,404.4,453.773c0-7.519,5.32-10.5,11.846-6.739C422.773,450.723,428.093,459.874,428.093,467.393Z" transform="translate(-319.631 -299.274)"/><path class="ap" d="M449.093,479.493c0,7.519-5.32,10.5-11.846,6.739S425.4,473.322,425.4,465.873c0-7.519,5.32-10.5,11.846-6.739S449.093,471.974,449.093,479.493Z" transform="translate(-325.734 -302.79)"/><path class="y" d="M524.17,478.43l2.128,1.206a2.115,2.115,0,0,1,.922.993,2.53,2.53,0,0,1,.355,1.561v3.4c0,.5,0,.851-.284,1.064-.284.284-.567.213-.993-.071l-2.554-1.49a2.359,2.359,0,0,1-.78-.709l-.426-.5a2.01,2.01,0,0,1-.638-1.277c0-.426.284-.638.567-.5.142.071.213.213.355.355l.355.426a1.831,1.831,0,0,0,.638.638l2.7,1.561v-3.76l-3.4-1.986V472.4l3.972,2.27a1.268,1.268,0,0,1,.568,1.135c0,.568-.284.638-.568.426l-2.837-1.632v3.831Z" transform="translate(-353.78 -307.118)"/><path class="y" d="M534.735,480.585c0,.355-.213.638-.568.426a1.481,1.481,0,0,1-.567-1.135v-.78c0-.355.213-.638.567-.426l5.107,2.979v4.611c0,.568,0,.638-.284.78l-1.632.993c-.284.213-.355.213-.355.78v3.05c0,.5-.142.709-.568.426a1.152,1.152,0,0,1-.567-1.135V487.4c0-.5,0-.567.284-.709l1.561-.993c.355-.213.355-.213.355-.922v-2.2Z" transform="translate(-357.181 -308.919)"/><path class="y" d="M546.435,496.392l3.972,2.27a1.268,1.268,0,0,1,.567,1.135c0,.568-.284.638-.567.426l-5.107-2.979v-5.178q0-1.809,1.277-1.064l3.263,1.844v-3.76l-3.972-2.27a1.268,1.268,0,0,1-.567-1.135c0-.567.284-.638.567-.426l3.831,2.2a2.115,2.115,0,0,1,.922.993,2.744,2.744,0,0,1,.355,1.632v3.263c0,.567,0,.993-.355,1.206-.284.213-.568.142-.922-.071l-3.263-1.844Z" transform="translate(-360.581 -310.822)"/><path class="y" d="M559.27,498.73l2.128,1.206a2.115,2.115,0,0,1,.922.993,2.53,2.53,0,0,1,.355,1.561v3.4c0,.5,0,.851-.284,1.064-.284.284-.567.213-.993-.071l-2.554-1.49a2.36,2.36,0,0,1-.78-.709l-.426-.5a2.01,2.01,0,0,1-.638-1.277c0-.426.284-.638.568-.5.142.071.213.213.355.355l.355.426a1.831,1.831,0,0,0,.638.638l2.7,1.561v-3.76l-3.4-1.986V492.7l3.972,2.27a1.268,1.268,0,0,1,.567,1.135c0,.567-.284.638-.567.426l-2.837-1.632v3.831Z" transform="translate(-363.982 -313.018)"/><path class="y" d="M292.235,341.885c0,.355-.213.638-.568.426a1.481,1.481,0,0,1-.567-1.135v-.78c0-.355.213-.638.567-.426l5.107,2.979v4.611c0,.567,0,.638-.284.78l-1.632.993c-.284.213-.355.213-.355.78v3.05c0,.5-.142.709-.568.426a1.151,1.151,0,0,1-.567-1.135v-3.831c0-.5,0-.567.284-.709l1.561-.993c.355-.213.355-.213.355-.922v-2.2Z" transform="translate(-286.702 -268.608)"/><path class="y" d="M303.935,357.692l3.972,2.27a1.268,1.268,0,0,1,.567,1.135c0,.567-.284.638-.567.426l-5.107-2.979v-5.178q0-1.809,1.277-1.064l3.263,1.844v-3.76l-3.972-2.27a1.268,1.268,0,0,1-.567-1.135c0-.567.284-.638.567-.426l3.831,2.2a2.115,2.115,0,0,1,.922.993,2.743,2.743,0,0,1,.355,1.632v3.263c0,.567,0,.993-.355,1.206-.284.213-.568.142-.922-.071l-3.263-1.844Z" transform="translate(-290.102 -270.511)"/><path class="y" d="M315.067,355.115a1.268,1.268,0,0,1-.567-1.135c0-.567.284-.638.567-.426l3.972,2.27a2.748,2.748,0,0,1,1.135,2.27v3.05c0,.638-.071,1.064-.426,1.277a3.276,3.276,0,0,1,.426,1.773v3.05c0,.922-.5,1.277-1.135.922l-3.972-2.27a1.268,1.268,0,0,1-.567-1.135c0-.568.284-.638.567-.426l3.972,2.27v-2.625a1.729,1.729,0,0,0-.567-1.49l-2.27-1.277a1.268,1.268,0,0,1-.567-1.135c0-.567.284-.638.567-.426l2.27,1.277c.355.213.567.071.567-.851v-2.7Z" transform="translate(-293.503 -272.545)"/><path class="y" d="M330.74,362.635a2.748,2.748,0,0,1,1.135,2.27v9.151c0,.851-.5,1.277-1.135.922l-3.4-1.986a2.748,2.748,0,0,1-1.135-2.27v-9.151c0-.851.5-1.277,1.135-.922Zm0,10.711V364.2l-3.4-1.986v9.151Z" transform="translate(-296.903 -274.603)"/><path class="y" d="M350.735,375.685c0,.355-.213.638-.568.426a1.481,1.481,0,0,1-.567-1.135v-.78c0-.355.213-.638.567-.426l5.107,2.979v4.611c0,.568,0,.638-.284.78l-1.632.993c-.284.213-.355.213-.355.78v3.05c0,.5-.142.709-.568.426a1.151,1.151,0,0,1-.567-1.135v-3.831c0-.5,0-.567.284-.709l1.561-.993c.355-.213.355-.213.355-.922v-2.2Z" transform="translate(-303.704 -278.431)"/><path class="y" d="M362.435,382.385c0,.355-.213.638-.567.426a1.481,1.481,0,0,1-.567-1.135v-.78c0-.355.213-.638.567-.426l5.107,2.979v4.611c0,.568,0,.638-.284.78l-1.632.993c-.284.213-.355.213-.355.78v3.05c0,.5-.142.709-.567.426a1.151,1.151,0,0,1-.568-1.135v-3.831c0-.5,0-.567.284-.709l1.561-.993c.355-.213.355-.213.355-.922v-2.128Z" transform="translate(-307.104 -280.378)"/><path class="y" d="M374.135,389.214c0,.355-.213.638-.567.426A1.481,1.481,0,0,1,373,388.5V387.8c0-.355.213-.638.568-.426l5.107,2.979v4.611c0,.567,0,.638-.284.78l-1.632.993c-.284.213-.355.213-.355.78v3.05c0,.5-.142.709-.568.426a1.151,1.151,0,0,1-.567-1.135v-3.831c0-.5,0-.567.284-.709l1.561-.993c.355-.213.355-.213.355-.922v-2.2Z" transform="translate(-310.505 -282.384)"/><path class="y" d="M385.835,395.985c0,.355-.213.638-.568.426a1.481,1.481,0,0,1-.568-1.135v-.78c0-.355.213-.638.568-.426l5.107,2.979v4.611c0,.567,0,.638-.284.78l-1.632.993c-.284.213-.355.213-.355.78v3.05c0,.5-.142.709-.568.426a1.151,1.151,0,0,1-.567-1.135v-3.831c0-.5,0-.567.284-.709l1.561-.993c.355-.213.355-.213.355-.922v-2.2Z" transform="translate(-313.905 -284.331)"/><path class="y" d="M412.54,409.935a2.748,2.748,0,0,1,1.135,2.27v9.151c0,.851-.5,1.277-1.135.922l-3.4-1.986a2.748,2.748,0,0,1-1.135-2.27v-9.151c0-.851.5-1.277,1.135-.922Zm0,10.711V411.5l-3.4-1.986v9.151Z" transform="translate(-320.677 -288.35)"/><path class="y" d="M424.24,416.635a2.748,2.748,0,0,1,1.135,2.27v9.151c0,.851-.5,1.277-1.135.922l-3.4-1.986a2.748,2.748,0,0,1-1.135-2.27v-9.151c0-.851.5-1.277,1.135-.922Zm0,10.711V418.2l-3.4-1.986v9.151Z" transform="translate(-324.077 -290.297)"/><path class="y" d="M435.94,423.435a2.748,2.748,0,0,1,1.135,2.27v9.151c0,.851-.5,1.277-1.135.922l-3.4-1.986a2.748,2.748,0,0,1-1.135-2.27v-9.151c0-.851.5-1.277,1.135-.922Zm0,10.711V425l-3.4-1.986v9.151Z" transform="translate(-327.478 -292.273)"/><path class="y" d="M447.64,430.235a2.748,2.748,0,0,1,1.135,2.27v9.151c0,.851-.5,1.277-1.135.922l-3.4-1.986a2.748,2.748,0,0,1-1.135-2.27v-9.151c0-.851.5-1.277,1.135-.922Zm0,10.641v-9.151l-3.4-1.986v9.151Z" transform="translate(-330.878 -294.249)"/><g transform="translate(168.829 140.001)"><path class="aq" d="M546.522,463.849v-6.03L522.9,444.2v6.03Z" transform="translate(-522.9 -438.923)"/><path class="aq" d="M546.522,454.239v-.355a11.025,11.025,0,0,0-4.966-8.583l-13.691-7.874c-2.766-1.561-4.966-.284-4.966,2.837v.355Z" transform="translate(-522.9 -436.761)"/><path class="aq" d="M522.9,454.7v.213a11.025,11.025,0,0,0,4.966,8.583l13.691,7.874c2.767,1.561,4.966.284,4.966-2.837v-.213Z" transform="translate(-522.9 -441.975)"/></g><g transform="translate(165.779 198.835)"><path class="y" d="M520.373,523.885V519.7l.709.426v4.256c0,1.49-.568,1.915-1.7,1.206a3.148,3.148,0,0,1-.78-.567l.071-.638a2.206,2.206,0,0,0,.638.5c.355.213.568.213.78.071C520.3,524.878,520.373,524.524,520.373,523.885Z" transform="translate(-518.6 -519.7)"/><path class="y" d="M525.286,524.891a3.887,3.887,0,0,1,1.419,1.419,3.935,3.935,0,0,1,.5,1.986,1.637,1.637,0,0,1-.568,1.49,1.357,1.357,0,0,1-1.419-.213,3.273,3.273,0,0,1-1.348-1.419,4.013,4.013,0,0,1-.567-1.986,1.577,1.577,0,0,1,.567-1.419A1.489,1.489,0,0,1,525.286,524.891Zm.922,1.7a1.969,1.969,0,0,0-.922-1.064c-.426-.213-.709-.213-.922,0a1.472,1.472,0,0,0-.284,1.064,3.229,3.229,0,0,0,.355,1.419,2,2,0,0,0,.851.993q.532.319.851,0a1.468,1.468,0,0,0,.355-1.064A3.292,3.292,0,0,0,526.208,526.594Z" transform="translate(-519.966 -521.131)"/><path class="y" d="M530.1,531.168V524.5l.709.426v2.837h0a.536.536,0,0,1,.5-.284,1.369,1.369,0,0,1,.709.213,1.247,1.247,0,0,1,.355.284c.142.071.213.213.355.426a3.959,3.959,0,0,1,.355.568c.071.213.142.426.213.709a3.452,3.452,0,0,1,.071.851v2.7l-.709-.426v-2.625a2.941,2.941,0,0,0-.213-1.135,1.512,1.512,0,0,0-.709-.78.954.954,0,0,0-.567-.142.855.855,0,0,0-.355.355,3.073,3.073,0,0,0-.071.355v2.767Z" transform="translate(-521.942 -521.095)"/><path class="y" d="M536.6,535.711V531.1l.638.355.071.78h0a.718.718,0,0,1,.5-.284,1.85,1.85,0,0,1,.78.213,1.881,1.881,0,0,1,.426.355,3.938,3.938,0,0,1,.426.567,2.624,2.624,0,0,1,.355.78,4.835,4.835,0,0,1,.142,1.064v2.7l-.709-.426v-2.625a2.942,2.942,0,0,0-.213-1.135,1.513,1.513,0,0,0-.709-.78.569.569,0,0,0-.568-.071.855.855,0,0,0-.355.355,3.072,3.072,0,0,0-.071.355v2.767Z" transform="translate(-523.831 -523.013)"/><path class="y" d="M545.1,539.921l.213-.568a3.885,3.885,0,0,0,1.277,1.135,1.08,1.08,0,0,0,.851.213c.213-.071.284-.284.284-.638a1.889,1.889,0,0,0-.213-.851,4.278,4.278,0,0,0-.78-.993,4.039,4.039,0,0,1-1.49-2.625c0-.5.142-.851.5-.922a1.32,1.32,0,0,1,1.277.284,4.3,4.3,0,0,1,1.206.993l-.213.568a4.531,4.531,0,0,0-1.064-.922c-.355-.213-.638-.284-.78-.142a.6.6,0,0,0-.284.5,1.363,1.363,0,0,0,.284.851,3.338,3.338,0,0,0,.851.993,5.476,5.476,0,0,1,1.064,1.348,2.89,2.89,0,0,1,.355,1.277c0,.5-.142.851-.5.993a1.644,1.644,0,0,1-1.419-.284,5.416,5.416,0,0,1-.78-.568A2.708,2.708,0,0,1,545.1,539.921Z" transform="translate(-526.302 -524.031)"/><path class="y" d="M551.2,544.211V539.6l.638.355v.78h0c.284-.426.709-.426,1.277-.142a2.012,2.012,0,0,1,.709.638,2.2,2.2,0,0,1,.426.922h0a1.042,1.042,0,0,1,.426-.355,1.031,1.031,0,0,1,.851.213,1.88,1.88,0,0,1,.426.355,3.936,3.936,0,0,1,.426.568,8.323,8.323,0,0,1,.355.78,4.824,4.824,0,0,1,.142,1.064v2.7l-.709-.426v-2.554a2.7,2.7,0,0,0-.213-1.135,1.269,1.269,0,0,0-.638-.709.448.448,0,0,0-.5-.071.583.583,0,0,0-.355.355.771.771,0,0,0-.071.355v2.837l-.709-.426v-2.767a2.265,2.265,0,0,0-.213-.993,1.552,1.552,0,0,0-.638-.709.569.569,0,0,0-.567-.071.854.854,0,0,0-.355.355.532.532,0,0,0-.071.355v2.767Z" transform="translate(-528.075 -525.484)"/><path class="y" d="M560.852,542.881c.071-.071.213-.071.355.071.142.071.213.213.355.355a.521.521,0,0,1,.142.426.369.369,0,0,1-.142.284c-.071.071-.213,0-.355-.071a.708.708,0,0,1-.284-.355,1.008,1.008,0,0,1-.142-.426C560.71,543.023,560.71,542.952,560.852,542.881Zm.638,6.6-.709-.426v-4.54l.709.426Z" transform="translate(-530.846 -526.424)"/><path class="y" d="M563.538,545.7l.709.142v1.064l1.064.568v.638l-1.064-.567v2.483a1.333,1.333,0,0,0,.567,1.206l.426.213v.638a1.275,1.275,0,0,1-.638-.284,2.061,2.061,0,0,1-.78-.78,2.537,2.537,0,0,1-.284-1.348V547.19l-.638-.355V546.2l.638.355Z" transform="translate(-531.475 -527.256)"/><path class="y" d="M567.4,552.668V546l.709.426v2.838h0a.536.536,0,0,1,.5-.284,1.369,1.369,0,0,1,.709.213,1.246,1.246,0,0,1,.355.284c.142.071.213.213.355.426a3.962,3.962,0,0,1,.355.568c.071.213.142.426.213.709a3.454,3.454,0,0,1,.071.851v2.7l-.709-.426v-2.625a2.941,2.941,0,0,0-.213-1.135,1.513,1.513,0,0,0-.709-.78.954.954,0,0,0-.568-.142.855.855,0,0,0-.355.355,3.07,3.07,0,0,0-.071.355v2.767Z" transform="translate(-532.783 -527.344)"/></g><g transform="translate(59.374 54.903)"><path class="a" d="M375.268,327.865l.213,1.206a5.175,5.175,0,0,1-2.412-.922,8.31,8.31,0,0,1-3.192-3.263,8.682,8.682,0,0,1-1.277-4.611q0-2.447,1.277-3.192c.851-.5,1.986-.355,3.4.5a9.284,9.284,0,0,1,2.128,1.7l-.284.922a7.718,7.718,0,0,0-1.844-1.49,2.514,2.514,0,0,0-2.554-.355c-.638.355-.993,1.277-.993,2.625a7.23,7.23,0,0,0,.922,3.618,6.984,6.984,0,0,0,2.554,2.625A5.383,5.383,0,0,0,375.268,327.865Z" transform="translate(-368.6 -316.797)"/><path class="a" d="M380.271,332.648v-5.107a22.821,22.821,0,0,0-.071-2.341l1.064.568.071,1.49h.071a1.127,1.127,0,0,1,.709-.78,1.164,1.164,0,0,1,1.135.213,1.55,1.55,0,0,0,.355.213v1.277a4.2,4.2,0,0,0-.426-.284,1.2,1.2,0,0,0-1.064-.142,1.238,1.238,0,0,0-.567.922c0,.142-.071.355-.071.638v3.972Z" transform="translate(-371.971 -319.239)"/><path class="a" d="M391.346,335.963l-4.54-2.625a4.464,4.464,0,0,0,.638,2.341A4.689,4.689,0,0,0,389,337.24a3.6,3.6,0,0,0,1.773.638l.213,1.064a5.5,5.5,0,0,1-2.2-.78,5.9,5.9,0,0,1-2.341-2.412,6.591,6.591,0,0,1-.851-3.263,3.018,3.018,0,0,1,.851-2.412,1.826,1.826,0,0,1,2.2.142,3.887,3.887,0,0,1,1.277,1.135,6.556,6.556,0,0,1,1.277,2.767,7.9,7.9,0,0,1,.142,1.206Q391.346,335.751,391.346,335.963Zm-4.611-3.618,3.476,1.986a4.877,4.877,0,0,0-.355-1.7,3.106,3.106,0,0,0-1.277-1.419c-.568-.284-.993-.355-1.277-.071A2.138,2.138,0,0,0,386.735,332.346Z" transform="translate(-373.541 -320.568)"/><path class="a" d="M399.966,332.8l1.135.709v9.009a19.28,19.28,0,0,0,.071,1.986l-1.064-.638-.071-1.348h-.071a1.166,1.166,0,0,1-.851.568,2.137,2.137,0,0,1-1.348-.355,5.047,5.047,0,0,1-1.986-2.2,6.263,6.263,0,0,1-.78-3.192,2.829,2.829,0,0,1,.851-2.412,1.822,1.822,0,0,1,2.057.071,5.635,5.635,0,0,1,1.206.993,8.505,8.505,0,0,1,.78,1.206h0v-4.4Zm0,7.874v-1.348a1.384,1.384,0,0,0-.071-.567,4.292,4.292,0,0,0-.568-1.49,2.706,2.706,0,0,0-1.135-1.064,1.07,1.07,0,0,0-1.419,0,2.414,2.414,0,0,0-.5,1.773,5.045,5.045,0,0,0,.5,2.27,3.569,3.569,0,0,0,1.419,1.632,1.588,1.588,0,0,0,1.064.213.923.923,0,0,0,.638-.78A2.19,2.19,0,0,0,399.966,340.674Z" transform="translate(-376.273 -321.448)"/><path class="a" d="M406.484,336.581a.448.448,0,0,1,.5.071,1.314,1.314,0,0,1,.5.567,1.369,1.369,0,0,1,.213.709.552.552,0,0,1-.213.5c-.142.071-.284.071-.568-.071a1.315,1.315,0,0,1-.5-.567,1.369,1.369,0,0,1-.213-.709C406.271,336.794,406.342,336.652,406.484,336.581Zm1.064,10.782-1.206-.709v-7.448l1.206.709Z" transform="translate(-379.528 -322.534)"/><path class="a" d="M410.922,341.1l1.135.284v1.773l1.7.993v1.064l-1.7-.993v4.043a2.026,2.026,0,0,0,.922,1.986,1.841,1.841,0,0,0,.709.284l.071,1.064a5.471,5.471,0,0,1-1.064-.426,3.161,3.161,0,0,1-1.277-1.277,4.853,4.853,0,0,1-.426-2.2v-4.043l-.993-.568v-1.064l.993.568V341.1Z" transform="translate(-380.632 -323.861)"/><path class="a" d="M427.068,357.765l.213,1.206a5.176,5.176,0,0,1-2.412-.922,8.311,8.311,0,0,1-3.192-3.263,8.683,8.683,0,0,1-1.277-4.611q0-2.447,1.277-3.192c.851-.5,1.986-.355,3.4.5a9.284,9.284,0,0,1,2.128,1.7l-.284.922a7.718,7.718,0,0,0-1.844-1.49,2.514,2.514,0,0,0-2.554-.355c-.638.355-.993,1.277-.993,2.625a7.23,7.23,0,0,0,.922,3.618,6.984,6.984,0,0,0,2.554,2.625A5.384,5.384,0,0,0,427.068,357.765Z" transform="translate(-383.655 -325.487)"/><path class="a" d="M436.407,360.831V363.6a14.276,14.276,0,0,0,.071,1.844l-1.064-.638-.071-.993h-.071a1.575,1.575,0,0,1-.78.355,3.2,3.2,0,0,1-1.206-.355,3.762,3.762,0,0,1-1.49-1.49,3.611,3.611,0,0,1-.5-1.844c0-.922.355-1.419.993-1.49a4.987,4.987,0,0,1,2.908.993v-.142a1.562,1.562,0,0,0-.071-.567,1.144,1.144,0,0,0-.213-.638,1.472,1.472,0,0,0-.426-.709,7.547,7.547,0,0,0-.78-.638,2.756,2.756,0,0,0-1.7-.426l-.284-1.064a3.838,3.838,0,0,1,2.128.567,4.3,4.3,0,0,1,1.915,1.986A4.978,4.978,0,0,1,436.407,360.831Zm-1.135,1.419V360.9c-1.844-1.135-2.767-1.064-2.767.071a2.082,2.082,0,0,0,.284,1.135,2.052,2.052,0,0,0,.78.78,1.407,1.407,0,0,0,.993.213.77.77,0,0,0,.567-.568C435.272,362.533,435.272,362.392,435.272,362.25Z" transform="translate(-386.823 -328.127)"/><path class="a" d="M441.171,367.848v-5.107a22.831,22.831,0,0,0-.071-2.341l1.064.568.071,1.49h.071a1.127,1.127,0,0,1,.709-.78,1.164,1.164,0,0,1,1.135.213,1.552,1.552,0,0,0,.355.213v1.277a4.193,4.193,0,0,0-.426-.284,1.2,1.2,0,0,0-1.064-.142,1.237,1.237,0,0,0-.567.922c0,.142-.071.355-.071.638v3.972Z" transform="translate(-389.671 -329.47)"/><path class="a" d="M451.466,362.5l1.135.709v9.009a19.272,19.272,0,0,0,.071,1.986l-1.064-.638-.071-1.348h-.071a1.166,1.166,0,0,1-.851.567,2.137,2.137,0,0,1-1.348-.355,5.047,5.047,0,0,1-1.986-2.2,6.263,6.263,0,0,1-.78-3.192,2.829,2.829,0,0,1,.851-2.412,1.822,1.822,0,0,1,2.057.071,5.633,5.633,0,0,1,1.206.993,8.506,8.506,0,0,1,.78,1.206h0v-4.4Zm0,7.8v-1.277a1.384,1.384,0,0,0-.071-.567,4.292,4.292,0,0,0-.568-1.49,2.705,2.705,0,0,0-1.135-1.064,1.07,1.07,0,0,0-1.419,0,2.414,2.414,0,0,0-.5,1.773,5.045,5.045,0,0,0,.5,2.27,3.568,3.568,0,0,0,1.419,1.632,1.587,1.587,0,0,0,1.064.213.923.923,0,0,0,.638-.78C451.395,370.729,451.466,370.587,451.466,370.3Z" transform="translate(-391.24 -330.08)"/></g><g transform="translate(23.125 117.471)"><path class="y" d="M318.564,411.03v-5.32h0l-.922.071-.142-.709,1.135-.071.638.355v6.1Z" transform="translate(-317.5 -405)"/><path class="y" d="M324.564,414.43v-5.32h0l-.922.071-.142-.709,1.135-.071.638.355v6.1Z" transform="translate(-319.244 -405.988)"/><path class="y" d="M328.668,417.317l-.568-.284,2.27-5.533.567.355Z" transform="translate(-320.581 -406.889)"/><path class="y" d="M336.1,421.119l-3.4-1.986v-.5l.567-.284a6.622,6.622,0,0,0,1.561-.993,1.444,1.444,0,0,0,.426-1.064,2.266,2.266,0,0,0-.213-.993,2.052,2.052,0,0,0-.78-.78,1.329,1.329,0,0,0-1.135-.142l-.213-.709a1.939,1.939,0,0,1,1.49.213,2.826,2.826,0,0,1,1.206,1.206,2.98,2.98,0,0,1,.426,1.49,1.98,1.98,0,0,1-.426,1.277,6.769,6.769,0,0,1-1.419.993l-.426.213h0l2.412,1.348v.709Z" transform="translate(-321.918 -407.499)"/><path class="y" d="M339,417.487c.355-.355.78-.355,1.348-.071a3.131,3.131,0,0,1,1.277,1.561,6.816,6.816,0,0,1,.5,2.554,3.107,3.107,0,0,1-.5,2.128c-.355.355-.78.355-1.348.071A3.187,3.187,0,0,1,339,422.169a5.982,5.982,0,0,1-.5-2.625A2.89,2.89,0,0,1,339,417.487Zm1.348.5c-.355-.213-.567-.142-.78.213a3.5,3.5,0,0,0-.284,1.7,5.351,5.351,0,0,0,.284,1.986,2.024,2.024,0,0,0,.78,1.135c.355.213.638.142.78-.213a3.5,3.5,0,0,0,.284-1.7,5.594,5.594,0,0,0-.284-1.986A1.938,1.938,0,0,0,340.344,417.984Z" transform="translate(-323.603 -408.549)"/></g></g><g transform="translate(72.143 73.394)"><g transform="translate(8.725 12.556)"><path class="ar" d="M407.212,225.227l-8.512-4.966V192.1l8.512,4.895Z" transform="translate(-398.7 -192.1)"/><path class="as" d="M435.312,241.427l-8.512-4.895V208.3l8.512,4.895Z" transform="translate(-406.867 -196.808)"/><path class="at" d="M463.412,257.627l-8.512-4.895V224.5l8.512,4.895Z" transform="translate(-415.034 -201.517)"/></g><path class="au" d="M449.466,216.616,393,183.985V179.8l56.466,32.631Z" transform="translate(-388.318 -175.969)"/><path class="av" d="M449.466,268.516,393,235.885V231.7l56.466,32.631Z" transform="translate(-388.318 -191.053)"/><path class="aw" d="M451.559,277.256,388,240.582V235.9l63.559,36.674Z" transform="translate(-386.865 -192.274)"/><path class="ax" d="M452.158,212.635,386.4,174.684l32.915-.284Z" transform="translate(-386.4 -174.4)"/></g><path class="a" d="M523.019,233.189l20.572,11.917c.78.426,1.419.071,1.419-.78a3.234,3.234,0,0,0-1.419-2.483l-20.572-11.917c-.78-.426-1.419-.071-1.419.78A3.234,3.234,0,0,0,523.019,233.189ZM543.59,249.15l-20.572-11.917c-.78-.426-1.419-.071-1.419.78a3.234,3.234,0,0,0,1.419,2.483l20.572,11.917c.78.426,1.419.071,1.419-.78A3.123,3.123,0,0,0,543.59,249.15Zm0,7.306-20.572-11.917c-.78-.426-1.419-.071-1.419.78a3.234,3.234,0,0,0,1.419,2.483l20.572,11.917c.78.426,1.419.071,1.419-.78A3.123,3.123,0,0,0,543.59,256.456Z" transform="translate(-353.551 -117.091)"/><g transform="translate(15.819 26.616)"><path class="a" d="M343.01,131.7c0,2.2-1.561,3.05-3.4,1.986a7.449,7.449,0,0,1-3.4-5.888c0-2.2,1.561-3.05,3.4-1.986A7.641,7.641,0,0,1,343.01,131.7Z" transform="translate(-315.487 -113.368)"/><path class="a" d="M328.41,123.2c0,2.2-1.561,3.05-3.4,1.986a7.449,7.449,0,0,1-3.4-5.888c0-2.2,1.561-3.05,3.4-1.986A7.757,7.757,0,0,1,328.41,123.2Z" transform="translate(-311.243 -110.898)"/><path class="a" d="M313.81,114.8c0,2.2-1.561,3.05-3.4,1.986A7.449,7.449,0,0,1,307,110.9c0-2.2,1.561-3.05,3.4-1.986A7.529,7.529,0,0,1,313.81,114.8Z" transform="translate(-307 -108.457)"/></g><path class="a" d="M326.1,530.705l-17.947-10.357-1.064-4.043a2,2,0,0,0-.78-1.064l-5.462-3.192c-.426-.284-.851-.071-.851.5a1.8,1.8,0,0,0,.851,1.419l4.895,2.837,6.1,23.2a2.006,2.006,0,0,0,.78,1.064l1.773.993c-.071,0-.142.071-.213.071-.851.5-.851,2.057,0,3.476s2.2,2.27,3.05,1.773.851-2.057,0-3.476a.981.981,0,0,0-.213-.284l3.831,2.2c-.071,0-.142.071-.213.071-.851.5-.851,2.057,0,3.476s2.2,2.27,3.05,1.773.851-2.057,0-3.476a.981.981,0,0,0-.213-.284l.78.5c.426.284.851.071.851-.5a1.8,1.8,0,0,0-.851-1.419l-11.066-6.384-1.277-4.753,12.91,7.448c1.206.709,2.2.355,2.483-.851l1.206-5.746A5.375,5.375,0,0,0,326.1,530.705Z" transform="translate(-289.147 -199.102)"/><path class="a" d="M326.1,700.705l-17.947-10.357-1.064-4.043a2.005,2.005,0,0,0-.78-1.064l-5.462-3.192c-.426-.284-.851-.071-.851.5a1.8,1.8,0,0,0,.851,1.419l4.895,2.837,6.1,23.2a2.006,2.006,0,0,0,.78,1.064l1.773.993c-.071,0-.142.071-.213.071-.851.5-.851,2.057,0,3.476s2.2,2.27,3.05,1.773.851-2.057,0-3.476a.98.98,0,0,0-.213-.284l3.831,2.2c-.071,0-.142.071-.213.071-.851.5-.851,2.057,0,3.476s2.2,2.27,3.05,1.773.851-2.057,0-3.476a.98.98,0,0,0-.213-.284l.78.5c.426.284.851.071.851-.5a1.8,1.8,0,0,0-.851-1.419l-11.066-6.384-1.277-4.753,12.91,7.448c1.206.709,2.2.355,2.483-.851l1.206-5.746A5.375,5.375,0,0,0,326.1,700.705Z" transform="translate(-289.147 -248.51)"/><path class="ay" d="M466.794,165.753,308.251,74.173C295.27,66.654,284.7,72.684,284.7,87.58V534.907c0,14.9,10.57,33.127,23.551,40.647l158.543,91.579c12.981,7.519,23.551,1.49,23.551-13.407v-447.4C490.345,191.432,479.776,173.272,466.794,165.753Zm21.494,487.9c0,4.611-1.064,8.441-3.121,11a9.764,9.764,0,0,1-7.8,3.618h0a19.38,19.38,0,0,1-9.576-2.979L309.244,573.78c-12.414-7.165-22.558-24.615-22.558-38.873V87.651c0-9.009,4.185-14.613,10.924-14.613a19.38,19.38,0,0,1,9.576,2.979L465.8,167.526c12.414,7.165,22.558,24.615,22.558,38.873V653.655Z" transform="translate(-284.7 -70.936)"/><path class="a" d="M437.5,598.73l-76.4-43.981V549.5l76.4,43.981Z" transform="translate(-306.904 -210.023)"/><path class="a" d="M402.1,595.5l-41-23.551V566.7l41,23.48Z" transform="translate(-306.904 -215.022)"/><path class="a" d="M437.5,773.9l-76.4-44.052V724.6l76.4,43.981Z" transform="translate(-306.904 -260.913)"/><path class="a" d="M402.1,770.6l-41-23.48V741.8l41,23.551Z" transform="translate(-306.904 -265.912)"/><g transform="translate(139.249 388.017)"><path class="a" d="M489.938,637.061,481,631.882v-1.773l1.561-.78a18.12,18.12,0,0,0,3.547-2.128,3.286,3.286,0,0,0,1.064-2.341,4.547,4.547,0,0,0-.567-2.128,4.72,4.72,0,0,0-1.773-1.773,3.627,3.627,0,0,0-2.837-.355l-.709-2.483c1.135-.426,2.483-.142,4.043.78a7.691,7.691,0,0,1,3.192,3.192,7.474,7.474,0,0,1,1.135,3.9,4.245,4.245,0,0,1-.993,2.908,9.438,9.438,0,0,1-2.979,2.057l-1.135.5v.071l5.391,3.121Z" transform="translate(-481 -617.927)"/><path class="a" d="M504.741,630.3v2.341l-5.107-2.908-.355,2.837c.284.142.568.284.922.5a11.2,11.2,0,0,1,3.192,2.837,7.852,7.852,0,0,1,1.7,4.824,2.892,2.892,0,0,1-1.49,2.908c-.993.426-2.27.213-3.831-.709a11.857,11.857,0,0,1-3.476-2.908l.5-1.844a12.022,12.022,0,0,0,2.908,2.483,2.814,2.814,0,0,0,1.986.426c.5-.142.851-.709.851-1.561,0-1.915-1.277-3.618-3.76-5.036-.5-.284-1.135-.638-1.773-.922l.851-7.165Z" transform="translate(-485.447 -620.39)"/><path class="a" d="M516.353,637.131a8.04,8.04,0,0,1,3.476,4.114,16.157,16.157,0,0,1,1.206,6.313q0,3.724-1.277,5.107c-.851.922-2.057.922-3.547.071a7.971,7.971,0,0,1-3.4-4.114,16.519,16.519,0,0,1-1.206-6.384c0-2.412.426-4.043,1.277-5.036C513.657,636.28,514.792,636.209,516.353,637.131Zm-.071,2.128a1.087,1.087,0,0,0-1.631.5,8.073,8.073,0,0,0-.638,3.831,16.119,16.119,0,0,0,.567,4.54,4.268,4.268,0,0,0,1.632,2.412c1.49.851,2.2-.568,2.2-4.4C518.481,642.38,517.771,640.11,516.282,639.259Z" transform="translate(-489.893 -623.318)"/><path class="a" d="M531.653,645.945a8.04,8.04,0,0,1,3.476,4.114,16.157,16.157,0,0,1,1.206,6.313q0,3.724-1.277,5.107c-.851.922-2.057.922-3.547.071a7.971,7.971,0,0,1-3.4-4.114,16.517,16.517,0,0,1-1.206-6.384c0-2.412.426-4.043,1.277-4.966C528.957,645.094,530.163,645.094,531.653,645.945Zm-.071,2.2a1.087,1.087,0,0,0-1.632.5,8.073,8.073,0,0,0-.638,3.831,16.116,16.116,0,0,0,.568,4.54,4.268,4.268,0,0,0,1.632,2.412c1.49.851,2.2-.638,2.2-4.4C533.781,651.266,533.071,649,531.582,648.144Z" transform="translate(-494.34 -625.89)"/><path class="a" d="M547.9,666.1l5.178,2.979v1.986l-5.178-2.979Z" transform="translate(-500.443 -631.928)"/></g><g transform="translate(150.315 521.146)"><path class="a" d="M496.671,805.6l8.867,5.107v1.844l-5.6,10.073-2.625-1.49,5.533-9.506v-.071l-6.242-3.618V805.6Z" transform="translate(-496.6 -805.6)"/><path class="a" d="M520.141,819.6v2.341l-5.107-2.908-.355,2.837c.284.142.568.284.922.5a11.2,11.2,0,0,1,3.192,2.838,7.852,7.852,0,0,1,1.7,4.824,2.892,2.892,0,0,1-1.49,2.908c-.993.426-2.27.213-3.831-.709a11.859,11.859,0,0,1-3.476-2.908l.5-1.844a12.024,12.024,0,0,0,2.908,2.483,2.813,2.813,0,0,0,1.986.426c.568-.142.851-.709.851-1.561,0-1.915-1.277-3.618-3.76-5.036-.5-.284-1.135-.638-1.773-.922l.851-7.165Z" transform="translate(-500.989 -808.535)"/><path class="a" d="M531.653,826.342a8.04,8.04,0,0,1,3.476,4.114,16.157,16.157,0,0,1,1.206,6.313q0,3.724-1.277,5.107c-.851.922-2.057.922-3.547.071a7.971,7.971,0,0,1-3.4-4.114,16.518,16.518,0,0,1-1.206-6.384c0-2.412.426-4.043,1.277-5.036C528.957,825.491,530.163,825.491,531.653,826.342Zm-.071,2.128a1.087,1.087,0,0,0-1.632.5,8.073,8.073,0,0,0-.638,3.831,16.117,16.117,0,0,0,.568,4.54,4.268,4.268,0,0,0,1.632,2.412c1.49.851,2.2-.568,2.2-4.4C533.781,831.662,533.071,829.321,531.582,828.47Z" transform="translate(-505.406 -811.445)"/><path class="a" d="M547.9,846.4l5.178,2.979v1.986l-5.178-2.979Z" transform="translate(-511.51 -817.458)"/></g></g><g transform="translate(59.054 26.651)"><path class="az" d="M230.4,155.648V131.6l12.981,19.508Z" transform="translate(-159.818 -91.237)"/><path class="ba" d="M205.6,141.377V117.4l12.91,19.508Z" transform="translate(-152.61 -87.11)"/><path class="bb" d="M180.7,127.177V103.2l12.981,19.437Z" transform="translate(-145.374 -82.983)"/><path class="bc" d="M155.8,112.948V88.9l12.981,19.508Z" transform="translate(-138.137 -78.827)"/><path class="bd" d="M130.9,98.747V74.7l12.981,19.508Z" transform="translate(-130.9 -74.7)"/></g><g transform="translate(37.489 314.228)"><path class="az" d="M346,495.977V472l12.981,19.508Z" transform="translate(-275.418 -431.637)"/><path class="ba" d="M321.2,481.777V457.8l12.91,19.437Z" transform="translate(-268.21 -427.51)"/><path class="bb" d="M296.3,467.548V443.5l12.981,19.508Z" transform="translate(-260.974 -423.354)"/><path class="bc" d="M271.4,453.348V429.3l12.981,19.508Z" transform="translate(-253.737 -419.227)"/><path class="bd" d="M246.5,439.077V415.1l12.981,19.508Z" transform="translate(-246.5 -415.1)"/></g><g transform="translate(191.138 398.146)"><g class="be"><path class="bf" d="M331.713,598.4l201.6,116.123L518.7,722.894,317.1,606.771Z" transform="translate(-317.1 -598.4)"/><path class="bg" d="M518.7,779.962l14.613,13.691-14.613,8.37L317.1,685.9Z" transform="translate(-317.1 -623.831)"/><g transform="translate(0 8.371)"><path class="bh" d="M615.913,816.225,601.3,824.6V770.47l14.613-8.37Z" transform="translate(-399.698 -654.347)"/><path class="bi" d="M606.8,775.5l6.81-3.9v45.116l-6.81,3.9Z" transform="translate(-401.297 -657.108)"/><path class="bh" d="M518.7,780.448,317.1,664.325V610.2L518.7,726.323Z" transform="translate(-317.1 -610.2)"/></g></g><path class="a" d="M356.42,656.7,331.8,642.513c-1.915-1.064-3.4-.213-3.4,1.986v1.064h0v12.556h0v1.064a7.529,7.529,0,0,0,3.4,5.888l24.615,14.187c1.915,1.064,3.4.213,3.4-1.986V662.588A7.757,7.757,0,0,0,356.42,656.7Zm2.27,18.089-29.155-16.883V647.053l29.155,16.812ZM350.6,663.936l-13.052-7.519v1.915l13.052,7.519Z" transform="translate(-320.384 -611.088)"/><path class="a" d="M427.69,704.738,383,678.988V673.1l44.69,25.75Z" transform="translate(-336.253 -620.11)"/><path class="a" d="M411.162,714.29,383,698.188V692.3l28.162,16.1Z" transform="translate(-336.253 -625.691)"/><g transform="translate(102.645 88.6)"><path class="a" d="M567.744,773.9l3.9,2.27v12.2l10.215,5.888v4.185l-10.215-5.888v12.272l-3.9-2.27V790.286L557.6,784.4v-4.185l10.144,5.888Z" transform="translate(-489.643 -738.006)"/><path class="a" d="M471.518,742.949l-2.767-1.561V736.92l-6.952-4.043v-2.2l6.313-7.377,3.4,1.986v10.641l1.986,1.135v2.554l-1.986-1.135Zm-6.952-11,4.185,2.412v-4.824c0-.638,0-1.632.071-2.979l-.071-.071c-.5.851-.922,1.561-1.348,2.2l-2.837,3.263Z" transform="translate(-461.8 -723.3)"/><path class="a" d="M490.828,753.271l-10.428-6.03v-1.986l1.844-.851a19.644,19.644,0,0,0,4.114-2.483,3.552,3.552,0,0,0,1.206-2.7,5.175,5.175,0,0,0-.638-2.483,5.7,5.7,0,0,0-2.057-2.057,3.848,3.848,0,0,0-3.263-.426l-.851-2.837c1.277-.426,2.908-.142,4.753.922a10.42,10.42,0,0,1,3.76,3.689,9.243,9.243,0,0,1,1.277,4.611,4.825,4.825,0,0,1-1.135,3.4,10.573,10.573,0,0,1-3.476,2.341l-1.348.568v.071l6.313,3.618v2.625Z" transform="translate(-467.206 -725.606)"/><path class="a" d="M505.7,744.39a9.805,9.805,0,0,1,4.043,4.824,18.624,18.624,0,0,1,1.348,7.306c0,2.908-.5,4.895-1.419,5.959-.993,1.064-2.341,1.064-4.185.071a9.555,9.555,0,0,1-3.972-4.753,19.1,19.1,0,0,1-1.419-7.448c0-2.767.5-4.753,1.49-5.817C502.583,743.4,503.931,743.326,505.7,744.39Zm-.071,2.483a1.263,1.263,0,0,0-1.915.568,9.642,9.642,0,0,0-.709,4.469,15.634,15.634,0,0,0,.709,5.249,4.488,4.488,0,0,0,1.915,2.767c1.7.993,2.625-.709,2.625-5.107C508.187,750.562,507.336,747.866,505.633,746.873Z" transform="translate(-472.931 -729.21)"/><path class="a" d="M523.575,754.69a9.5,9.5,0,0,1,4.043,4.824,18.624,18.624,0,0,1,1.348,7.306q0,4.363-1.49,5.959c-.993,1.064-2.341,1.064-4.185.071a9.555,9.555,0,0,1-3.972-4.753,19.1,19.1,0,0,1-1.419-7.448c0-2.767.5-4.753,1.49-5.817C520.383,753.7,521.8,753.626,523.575,754.69Zm-.071,2.483a1.263,1.263,0,0,0-1.915.567,9.642,9.642,0,0,0-.709,4.469,15.633,15.633,0,0,0,.709,5.249,4.488,4.488,0,0,0,1.915,2.767c1.7.993,2.625-.709,2.625-5.107C526.058,760.862,525.206,758.166,523.5,757.173Z" transform="translate(-478.105 -732.203)"/><path class="a" d="M541.4,765a9.5,9.5,0,0,1,4.043,4.824,18.625,18.625,0,0,1,1.348,7.306c0,2.908-.5,4.895-1.419,5.959-.993,1.064-2.341,1.064-4.185.071a9.555,9.555,0,0,1-3.972-4.753,19.1,19.1,0,0,1-1.419-7.448c0-2.766.5-4.753,1.49-5.817C538.283,764.009,539.631,764.009,541.4,765Zm-.071,2.483a1.263,1.263,0,0,0-1.915.568,9.643,9.643,0,0,0-.709,4.469,15.636,15.636,0,0,0,.709,5.249,4.488,4.488,0,0,0,1.915,2.767c1.7.993,2.625-.709,2.625-5.107C543.958,771.173,543.036,768.478,541.333,767.484Z" transform="translate(-483.307 -735.208)"/></g></g><g transform="translate(396.57 512.496)"><g class="bj"><path class="bk" d="M652.687,812.113c0,6.313-2.2,10.782-5.746,12.981-.142.071-6.03,3.76-6.171,3.831-3.689,2.057-1.348-2.625-6.952-5.888-11.279-6.526-20.43-22.274-20.43-35.255,0-6.384-5.888-6.455-2.27-8.583.071-.071,6.739-3.831,6.881-3.9,3.689-1.986,8.725-1.632,14.258,1.561C643.536,783.383,652.687,799.131,652.687,812.113Z" transform="translate(-607.642 -763.805)"/><path class="bl" d="M644.059,817.705c0,12.91-9.151,18.16-20.43,11.634s-20.43-22.274-20.43-35.255c0-12.91,9.151-18.16,20.43-11.634S644.059,804.724,644.059,817.705Z" transform="translate(-605.683 -765.425)"/><path class="bm" d="M640.919,817.48c0,9.576-6.739,13.407-15.11,8.583S610.7,809.606,610.7,800.029s6.739-13.407,15.109-8.583C634.18,796.2,640.919,807.9,640.919,817.48Z" transform="translate(-607.863 -768.25)"/><path class="bn" d="M627.228,825.279c-8.37-4.824-15.109-16.457-15.109-26.034a12.47,12.47,0,0,1,2.341-7.945c-2.341,1.7-3.76,4.895-3.76,9.222,0,9.577,6.739,21.21,15.109,26.034,5.391,3.121,10.073,2.625,12.7-.709C635.812,827.974,631.7,827.9,627.228,825.279Z" transform="translate(-607.863 -768.813)"/><g transform="translate(10.853 10.499)"><path class="bo" d="M638.961,778.2c-.142-.071-.284-.213-.426-.284l-.426-.213-6.81,3.9a1.779,1.779,0,0,1,.5.284c.142.071.213.142.355.213Z" transform="translate(-624.703 -775.359)"/><path class="bo" d="M628.81,774.4,622,778.372a8.248,8.248,0,0,1,1.277.284l6.881-3.972A11.5,11.5,0,0,0,628.81,774.4Z" transform="translate(-622 -774.4)"/><path class="bo" d="M644.939,782.5l-6.739,3.9a2.777,2.777,0,0,0,.709.567l6.739-3.9C645.365,782.855,645.152,782.642,644.939,782.5Z" transform="translate(-626.708 -776.754)"/><path class="bo" d="M655.339,793.8l-6.739,3.9c.142.213.355.5.5.709l6.739-3.9C655.694,794.3,655.552,794.084,655.339,793.8Z" transform="translate(-629.731 -780.038)"/><path class="bo" d="M650.539,787.9l-6.739,3.9c.213.213.355.426.567.638l6.739-3.9A4.587,4.587,0,0,0,650.539,787.9Z" transform="translate(-628.336 -778.324)"/><path class="bo" d="M659.439,800.2l-6.739,3.9a7.74,7.74,0,0,1,.426.78l6.739-3.9A7.752,7.752,0,0,0,659.439,800.2Z" transform="translate(-630.922 -781.898)"/><path class="bo" d="M665.694,837.7l-6.6,3.831c-.142.426-.355.851-.5,1.277l6.6-3.831A9.475,9.475,0,0,1,665.694,837.7Z" transform="translate(-632.637 -792.797)"/><path class="bo" d="M660.771,832.431a4.363,4.363,0,0,1-.071.993l6.668-3.831c0-.355.071-.638.071-.993Z" transform="translate(-633.248 -790.152)"/><path class="bo" d="M667.01,821.622c-.071-.284-.071-.638-.142-.922l-6.668,3.9c.071.284.071.638.142.922Z" transform="translate(-633.102 -787.856)"/><path class="bo" d="M658.5,817.4l.213.851,6.739-3.9-.213-.851Z" transform="translate(-632.608 -785.764)"/><path class="bo" d="M662.994,807.58a8.309,8.309,0,0,0-.355-.78l-6.739,3.9a8.342,8.342,0,0,0,.355.78Z" transform="translate(-631.852 -783.817)"/></g><path class="bk" d="M635.18,776.857c-5.533-3.192-10.57-3.547-14.258-1.561,0,0-.355.213-.922.5,3.618-1.561,8.3-.993,13.407,1.915,11.279,6.526,20.43,22.274,20.43,35.255,0,6.313-2.2,10.782-5.746,12.981-.071.071,1.632-.851,1.773-.851,3.547-2.2,5.746-6.668,5.746-12.981C655.61,799.131,646.459,783.383,635.18,776.857Z" transform="translate(-610.565 -763.805)"/><path class="a" d="M627.6,781.672c-5.391-3.121-10.215-3.476-13.9-1.632,3.4-.922,7.661-.213,12.2,2.412,11.279,6.526,20.43,22.274,20.43,35.255,0,6.739-2.483,11.35-6.455,13.336,4.966-1.419,8.158-6.455,8.158-14.116C648.033,803.946,638.883,788.2,627.6,781.672Z" transform="translate(-608.734 -765.215)"/><path class="bn" d="M631.552,799.3l1.844,7.094a2.6,2.6,0,0,0,.993,1.419l5.6,3.334c1.064.638,1.49,2.412.638,2.625l-4.469,1.277c-.355.142-.5.568-.355,1.135l1.632,7.023c.284,1.348-.851,1.632-1.7.426l-4.54-6.313a1.426,1.426,0,0,0-1.277-.709l-4.54.993c-.851.213-1.986-1.419-1.7-2.412l1.632-5.178a1.917,1.917,0,0,0-.426-1.632l-4.469-6.455c-.851-1.206-.426-2.483.638-1.915l5.6,3.05c.5.284.851.142.993-.284l1.844-4.966C629.849,797.169,631.2,797.949,631.552,799.3Z" transform="translate(-610.554 -770.639)"/><path class="bp" d="M629.881,800.1l1.844,7.094a2.6,2.6,0,0,0,.993,1.419l5.6,3.334c1.064.638,1.49,2.412.638,2.625l-4.469,1.277c-.355.142-.5.568-.355,1.135l1.632,7.023c.284,1.348-.851,1.632-1.7.426l-4.54-6.313a1.426,1.426,0,0,0-1.277-.709l-4.54.993c-.851.213-1.986-1.419-1.7-2.412l1.632-5.178a2.1,2.1,0,0,0-.355-1.632l-4.469-6.455c-.851-1.206-.426-2.483.638-1.915l5.6,3.05c.5.284.851.142.993-.284l1.844-4.966C628.107,797.973,629.526,798.824,629.881,800.1Z" transform="translate(-610.089 -770.875)"/><path class="bk" d="M629.881,800.1l1.844,7.094a2.6,2.6,0,0,0,.993,1.419l5.6,3.334c1.064.638,1.49,2.412.638,2.625l-4.469,1.277c-.355.142-.5.568-.355,1.135l1.632,7.023c.284,1.348-.851,1.632-1.7.426l-4.54-6.313a1.426,1.426,0,0,0-1.277-.709l-4.54.993c-.851.213-1.986-1.419-1.7-2.412l1.632-5.178a2.1,2.1,0,0,0-.355-1.632l-4.469-6.455c-.851-1.206-.426-2.483.638-1.915l5.6,3.05c.5.284.851.142.993-.284l1.844-4.966C628.107,797.973,629.526,798.824,629.881,800.1Z" transform="translate(-610.089 -770.875)"/></g></g><path class="az" d="M234.632,572.2v-8.867a24.156,24.156,0,0,1-5.32-6.6,14.889,14.889,0,0,1-1.7-6.81q0-3.511,1.915-4.682c1.277-.851,2.979-.78,5.036.213V543.4l2.7,1.561v2.057a18.277,18.277,0,0,1,4.682,4.966,16.356,16.356,0,0,1,2.2,6.313l-4.682-1.986a8.488,8.488,0,0,0-2.2-4.682v8.229a27.451,27.451,0,0,1,6.03,7.023,14.12,14.12,0,0,1,1.632,6.526c0,2.554-.638,4.327-1.986,5.249-1.348.993-3.192.993-5.6,0v3.972l-2.7-1.561v-3.831a18.052,18.052,0,0,1-5.178-5.675,19.828,19.828,0,0,1-2.554-7.874l4.824,2.2a12.929,12.929,0,0,0,1.135,3.547A13.241,13.241,0,0,0,234.632,572.2Zm0-22.132a1.769,1.769,0,0,0-1.7.426,2.535,2.535,0,0,0-.638,1.844,6.27,6.27,0,0,0,.567,2.412,11.089,11.089,0,0,0,1.773,2.554v-7.236Zm2.7,23.977a2.3,2.3,0,0,0,2.27-.142,2.7,2.7,0,0,0,.851-2.27,6,6,0,0,0-.709-2.837,10.845,10.845,0,0,0-2.412-2.979Z" transform="translate(-99.747 -184.269)"/><g class="bq" transform="translate(139.283 612.304)"><path class="ba" d="M268.6,920.112l8.725,5.036,4.185-2.412-8.725-5.036Z" transform="translate(-251.15 -905.357)"/><path class="az" d="M277.7,914.7l8.725,5.037,4.682-2.7L282.382,912Z" transform="translate(-253.794 -903.7)"/><path class="br" d="M250.2,930.944l8.725,5.036,3.263-1.844-8.725-5.036Z" transform="translate(-245.802 -908.67)"/><path class="bd" d="M244,935.051l8.725,5.036,1.7-.851L245.7,934.2Z" transform="translate(-244 -910.152)"/><path class="bs" d="M259.4,925.528l8.725,5.036,3.76-2.128L263.16,923.4Z" transform="translate(-248.476 -907.014)"/><path class="bt" d="M276.8,902.925l23.693,13.691,4.469-16.315Z" transform="translate(-253.533 -900.3)"/></g><g class="bq" transform="translate(309.105 656.71)"><path class="ba" d="M526.01,982.783l-8.725,5.036-4.185-2.483,8.725-5.037Z" transform="translate(-492.032 -967.957)"/><path class="az" d="M516.707,977.367l-8.725,5.036-4.682-2.767,8.725-5.036Z" transform="translate(-489.184 -966.3)"/><path class="br" d="M544.788,993.615l-8.725,5.036-3.263-1.915,8.725-5.036Z" transform="translate(-497.757 -971.27)"/><path class="bd" d="M551.657,997.651l-8.725,5.036-1.632-.851,8.725-5.036Z" transform="translate(-500.228 -972.752)"/><path class="bs" d="M535.385,988.2l-8.725,5.036-3.76-2.2L531.625,986Z" transform="translate(-494.88 -969.614)"/><path class="bt" d="M511.562,965.525l-23.693,13.691L483.4,962.9Z" transform="translate(-483.4 -962.9)"/></g><g transform="translate(431.187 323.45)"><path class="az" d="M346,495.977V472l12.981,19.508Z" transform="translate(-275.418 -431.637)"/><path class="ba" d="M321.2,481.777V457.8l12.91,19.437Z" transform="translate(-268.21 -427.51)"/><path class="bb" d="M296.3,467.548V443.5l12.981,19.508Z" transform="translate(-260.974 -423.354)"/><path class="bc" d="M271.4,453.348V429.3l12.981,19.508Z" transform="translate(-253.737 -419.227)"/><path class="bd" d="M246.5,439.077V415.1l12.981,19.508Z" transform="translate(-246.5 -415.1)"/></g><path class="az" d="M234.632,572.2v-8.867a24.156,24.156,0,0,1-5.32-6.6,14.889,14.889,0,0,1-1.7-6.81q0-3.511,1.915-4.682c1.277-.851,2.979-.78,5.036.213V543.4l2.7,1.561v2.057a18.277,18.277,0,0,1,4.682,4.966,16.356,16.356,0,0,1,2.2,6.313l-4.682-1.986a8.488,8.488,0,0,0-2.2-4.682v8.229a27.451,27.451,0,0,1,6.03,7.023,14.12,14.12,0,0,1,1.632,6.526c0,2.554-.638,4.327-1.986,5.249-1.348.993-3.192.993-5.6,0v3.972l-2.7-1.561v-3.831a18.052,18.052,0,0,1-5.178-5.675,19.828,19.828,0,0,1-2.554-7.874l4.824,2.2a12.929,12.929,0,0,0,1.135,3.547A13.241,13.241,0,0,0,234.632,572.2Zm0-22.132a1.769,1.769,0,0,0-1.7.426,2.535,2.535,0,0,0-.638,1.844,6.27,6.27,0,0,0,.567,2.412,11.089,11.089,0,0,0,1.773,2.554v-7.236Zm2.7,23.977a2.3,2.3,0,0,0,2.27-.142,2.7,2.7,0,0,0,.851-2.27,6,6,0,0,0-.709-2.837,10.845,10.845,0,0,0-2.412-2.979Z" transform="translate(180.453 -236.053)"/></g></g></svg>