<svg id="save_time" data-name="save time" xmlns="http://www.w3.org/2000/svg" xmlns:xlink="http://www.w3.org/1999/xlink" width="34.386" height="34.477" viewBox="0 0 34.386 34.477">
  <defs>
    <linearGradient id="linear-gradient" x1="0.5" x2="0.5" y2="1" gradientUnits="objectBoundingBox">
      <stop offset="0" stop-color="#0092ff"/>
      <stop offset="1" stop-color="#1656db"/>
    </linearGradient>
  </defs>
  <path id="Path_68831" data-name="Path 68831" d="M47.91,57.862a7.6,7.6,0,0,1-.084-3.3,8.913,8.913,0,0,1,5.769-6.924,7.481,7.481,0,0,1,3.717-.511,14,14,0,0,1,1.617.3c.329.084.427.021.5-.308.056-.238.1-.483.133-.728a12.817,12.817,0,0,0,.224-2.835,2.221,2.221,0,0,1-.042-.644,13.568,13.568,0,0,0-.553-3.171,15.28,15.28,0,0,0-8.667-9.85,13.308,13.308,0,0,0-5.013-1.127h-.182a1.515,1.515,0,0,0-.252,0,1,1,0,0,1-.2-.021,11.72,11.72,0,0,0-2.044.042,14.341,14.341,0,0,0-4.845,1.407,15.441,15.441,0,0,0-8.492,11.362c-.063.4-.021.8-.091,1.2v2.422a.147.147,0,0,1,.035.091,10.614,10.614,0,0,0,.707,3.64A15.147,15.147,0,0,0,33.5,54.4a15.311,15.311,0,0,0,4.817,3.423,13.236,13.236,0,0,0,5.244,1.288,2.2,2.2,0,0,1,.644.042,2.262,2.262,0,0,0,.434.028,17.661,17.661,0,0,0,3.031-.364c.434-.091.455-.126.35-.567C47.98,58.128,47.945,57.995,47.91,57.862Zm5.755-14.716c0-.147.042-.2.189-.189.28.014.56,0,.84,0s.539.007.805,0c.147-.007.189.042.189.189-.007.546-.007,1.1,0,1.645,0,.147-.042.189-.189.189-.546-.007-1.1-.007-1.645,0-.147,0-.189-.042-.189-.189C53.672,44.245,53.672,43.692,53.665,43.146ZM35.449,44.931c-.182.154-.6.049-.91.042-.343-.007-.805.147-.994-.063-.168-.189-.035-.637-.035-.973s-.154-.749.049-.931c.175-.154.6-.049.91-.042.343.007.8-.147.994.063.168.189.056.637.049.973S35.659,44.749,35.449,44.931Zm.714-8.233c.4-.378.777-.77,1.162-1.155.035-.035.077-.07.112-.105.084.07.161.119.224.182.357.35.714.707,1.078,1.05.133.119.119.2,0,.308q-.578.557-1.134,1.134c-.105.105-.168.126-.287.007-.364-.378-.742-.742-1.113-1.106C36.093,36.915,36.009,36.845,36.163,36.7Zm2.6,14.534c-.448.413-.847.882-1.337,1.267-.42-.42-.833-.847-1.253-1.26-.119-.112-.119-.182,0-.294.392-.378.784-.763,1.162-1.148.091-.091.14-.105.238-.007.4.406.8.812,1.2,1.2C38.872,51.092,38.858,51.141,38.767,51.232Zm11.621-14.5c.413-.406.819-.826,1.225-1.232.028-.028.063-.049.105-.084a1.6,1.6,0,0,1,.154.147l1.113,1.113c.1.1.154.161.021.287-.392.378-.777.77-1.155,1.169-.105.112-.161.105-.259,0-.392-.4-.791-.791-1.183-1.19C50.36,36.88,50.283,36.838,50.388,36.733Zm-6.756-3.794c.182-.2.609-.035.931-.049s.784-.133.973.035c.21.189.056.651.063.994.007.308.112.728-.042.91-.182.2-.609.056-.931.063s-.784.119-.973-.049c-.21-.2-.056-.651-.063-.994C43.577,33.534,43.472,33.114,43.633,32.939Zm1.9,22.074c-.175.154-.6.049-.91.042-.343-.007-.805.147-.994-.063-.168-.189-.035-.637-.035-.973s-.154-.749.049-.931c.175-.154.6-.049.91-.042.343.007.8-.147.994.063.168.189.056.637.049.973S45.74,54.83,45.537,55.012ZM43.787,44.98c-.245,0-.2-.14-.2-.273V40.941c0-1.253.007-2.506-.007-3.766,0-.217.056-.28.273-.273.49.021.987.014,1.477,0,.217-.007.273.056.273.273-.007,1.813,0,3.626-.014,5.447,0,.28.063.35.343.343,1.141-.021,2.282,0,3.43-.014.217,0,.28.056.273.273-.014.518-.014,1.029,0,1.547,0,.161-.042.2-.2.2Q46.615,44.973,43.787,44.98Z" transform="translate(-29.4 -28.719)" fill="url(#linear-gradient)"/>
  <path id="Path_68832" data-name="Path 68832" d="M332.217,325.032a6.377,6.377,0,0,0-.574-2.3,7.026,7.026,0,0,0-6.322-4.193,6.321,6.321,0,0,0-3.451.805,6.946,6.946,0,0,0-3.759,5.566,6.635,6.635,0,0,0,.791,3.969,7.27,7.27,0,0,0,3.976,3.465c.448.168.931.245,1.4.371h1.61c.511-.168,1.057-.21,1.568-.392a7.054,7.054,0,0,0,3.388-2.492A6.961,6.961,0,0,0,332.217,325.032Zm-3.577-.511q-2.184,2.195-4.362,4.383c-.126.126-.182.1-.287-.014-.805-.812-1.61-1.617-2.429-2.415-.154-.154-.126-.245.014-.378.364-.35.721-.7,1.064-1.071.14-.147.224-.119.35.007.315.322.644.623.952.952.154.161.238.161.392,0,.952-.973,1.925-1.932,2.884-2.912.175-.175.259-.189.434,0,.336.371.707.721,1.064,1.071.042.042.091.084.126.126A2.875,2.875,0,0,1,328.64,324.521Z" transform="translate(-297.857 -298.242)" fill="url(#linear-gradient)"/>
</svg>
