<svg id="Illustration" xmlns="http://www.w3.org/2000/svg" xmlns:xlink="http://www.w3.org/1999/xlink" width="353.589" height="324.353" viewBox="0 0 353.589 324.353">
  <defs>
    <linearGradient id="linear-gradient" y1="0.501" x2="1" y2="0.501" gradientUnits="objectBoundingBox">
      <stop offset="0" stop-color="#dae3fe"/>
      <stop offset="1" stop-color="#e9effd"/>
    </linearGradient>
    <linearGradient id="linear-gradient-2" x1="0" y1="0.501" x2="1.001" y2="0.501" xlink:href="#linear-gradient"/>
    <linearGradient id="linear-gradient-3" x1="0" y1="0.499" x2="1" y2="0.499" xlink:href="#linear-gradient"/>
    <linearGradient id="linear-gradient-4" x1="0.002" y1="0.501" x2="1.002" y2="0.501" xlink:href="#linear-gradient"/>
    <clipPath id="clip-path">
      <path id="Path_59320" data-name="Path 59320" d="M917.089,1721.885H811.816a1.42,1.42,0,0,1-1.416-1.416V1606.616a1.42,1.42,0,0,1,1.416-1.416H917.1a1.42,1.42,0,0,1,1.416,1.416v113.852A1.438,1.438,0,0,1,917.089,1721.885Z" transform="translate(-810.4 -1605.2)" fill="#0a192c"/>
    </clipPath>
    <linearGradient id="linear-gradient-5" x1="2.52" y1="-5.039" x2="2.155" y2="-4.022" gradientUnits="objectBoundingBox">
      <stop offset="0" stop-color="#ff928e"/>
      <stop offset="1" stop-color="#fe7062"/>
    </linearGradient>
    <linearGradient id="linear-gradient-6" x1="0.488" y1="0.513" x2="0.599" y2="2.702" gradientUnits="objectBoundingBox">
      <stop offset="0" stop-color="#febbba"/>
      <stop offset="1" stop-color="#ff928e"/>
    </linearGradient>
    <linearGradient id="linear-gradient-7" x1="0.377" y1="0.382" x2="1.409" y2="1.349" xlink:href="#linear-gradient-6"/>
    <linearGradient id="linear-gradient-8" x1="-1.869" y1="-0.765" x2="5.324" y2="3.175" xlink:href="#linear-gradient-6"/>
    <linearGradient id="linear-gradient-9" x1="0.607" y1="0.521" x2="6.245" y2="4.672" xlink:href="#linear-gradient-6"/>
  </defs>
  <g id="Group_23578" data-name="Group 23578">
    <path id="Path_59279" data-name="Path 59279" d="M814.111,707.579c-31.015,73.03-113.628,113.935-185.277,102.9-11.66-1.794-43.62-7.14-71.92-32.384-54.477-48.576-66.126-144.773-22.176-212.563,31.983-49.344,89.316-77.314,143.794-75.909,11.731.307,56.708,2.16,96.22,34.745a148.05,148.05,0,0,1,30.142,34.2C832,600.962,834.328,659.994,814.111,707.579Z" transform="translate(-504.465 -487.91)" fill="#e3eefc"/>
    <g id="Group_23566" data-name="Group 23566" transform="translate(70.73 12.841)">
      <g id="Group_23561" data-name="Group 23561" transform="translate(0)">
        <g id="Group_23558" data-name="Group 23558" transform="translate(16.361)" opacity="0.3">
          <path id="Path_59280" data-name="Path 59280" d="M1307.35,625a.856.856,0,0,1-.685-.991c.165-.9.3-1.818.378-2.726a.852.852,0,0,1,.909-.767h.012a.858.858,0,0,1,.767.932c-.094.956-.224,1.924-.4,2.868a.847.847,0,0,1-.9.7A.23.23,0,0,1,1307.35,625Zm-.177-8.167c-.035-.909-.118-1.841-.224-2.738a.845.845,0,0,1,1.676-.212c.118.956.2,1.924.236,2.88a.847.847,0,0,1-.814.885h-.106A.871.871,0,0,1,1307.173,616.83Zm-1.086-7.128c-.236-.885-.519-1.758-.838-2.62a.847.847,0,0,1,1.593-.578c.33.9.625,1.829.873,2.762a.846.846,0,0,1-.6,1.039.769.769,0,0,1-.283.024A.825.825,0,0,1,1306.087,609.7Zm-2.667-6.692c-.425-.8-.9-1.605-1.392-2.372a.844.844,0,0,1,1.416-.921c.519.8,1.015,1.641,1.475,2.49a.842.842,0,0,1-.354,1.145.814.814,0,0,1-.461.094A.831.831,0,0,1,1303.42,603.01Zm-4.072-5.936c-.6-.685-1.227-1.357-1.888-1.995a.851.851,0,1,1,1.192-1.216c.684.673,1.357,1.381,1.983,2.1a.842.842,0,0,1-.083,1.192.82.82,0,0,1-.626.2A.782.782,0,0,1,1299.349,597.073Zm-5.3-4.886c-.732-.543-1.5-1.05-2.278-1.534a.85.85,0,1,1,.885-1.452c.814.5,1.629,1.039,2.408,1.617a.852.852,0,0,1-.578,1.534A.864.864,0,0,1,1294.05,592.187Zm-31.145-4.8a.845.845,0,0,1,.507-1.086c.9-.33,1.829-.625,2.762-.873a.849.849,0,1,1,.437,1.64c-.885.236-1.77.519-2.62.826a.738.738,0,0,1-.354.047A.855.855,0,0,1,1262.9,587.384Zm24.9,1.216c-.838-.366-1.7-.7-2.561-.98a.847.847,0,1,1,.543-1.605c.909.307,1.818.649,2.7,1.039a.852.852,0,0,1-.413,1.629A2.387,2.387,0,0,1,1287.807,588.6Zm-17.762-3.128a.848.848,0,0,1,.744-.944c.956-.118,1.924-.2,2.88-.236a.85.85,0,0,1,.071,1.7c-.909.035-1.841.106-2.738.224a.39.39,0,0,1-.165,0A.856.856,0,0,1,1270.045,585.472Zm10.881,1.027c-.9-.165-1.818-.3-2.726-.389a.853.853,0,0,1,.142-1.7h.024c.956.094,1.924.236,2.868.4a.856.856,0,0,1,.685.991.868.868,0,0,1-.9.7A.129.129,0,0,1,1280.926,586.5Z" transform="translate(-1257.468 -584.291)" fill="#a8d7fe"/>
          <path id="Path_59281" data-name="Path 59281" d="M1218.005,619.054a.834.834,0,0,0,.5-.118c.378-.224.767-.437,1.157-.649a.847.847,0,0,0-.791-1.5c-.413.212-.814.448-1.216.685a.848.848,0,0,0-.307,1.157A.816.816,0,0,0,1218.005,619.054Z" transform="translate(-1217.23 -612.869)" fill="#a8d7fe"/>
        </g>
        <g id="Group_23559" data-name="Group 23559" transform="translate(0 23.949)" opacity="0.3">
          <path id="Path_59282" data-name="Path 59282" d="M1087.1,790.224a.833.833,0,0,0,.885-.649c.106-.425.212-.861.33-1.275a.848.848,0,0,0-1.629-.472q-.195.673-.354,1.345a.852.852,0,0,0,.625,1.027C1087,790.212,1087.048,790.212,1087.1,790.224Z" transform="translate(-1085.396 -787.217)" fill="#bdd0fb"/>
          <path id="Path_59283" data-name="Path 59283" d="M1108.187,873.828a.845.845,0,1,1,.213-1.676c.885.118,1.794.189,2.691.224a.85.85,0,0,1-.071,1.7q-.584-.018-1.169-.071C1109.3,873.946,1108.73,873.9,1108.187,873.828Zm6.538-.637a.833.833,0,0,1,.767-.92c.9-.083,1.794-.2,2.679-.366a.845.845,0,1,1,.295,1.664c-.932.165-1.876.3-2.821.378h-.141A.835.835,0,0,1,1114.725,873.191Zm-11.07-.26c-.909-.248-1.829-.531-2.714-.862a.847.847,0,0,1,.578-1.593c.85.307,1.711.578,2.573.814a.855.855,0,0,1,.6,1.039.842.842,0,0,1-.885.626A.6.6,0,0,1,1103.655,872.931Zm18.234-1.027a.855.855,0,0,1,.543-1.074c.85-.271,1.711-.59,2.537-.944a.846.846,0,0,1,.661,1.558c-.873.366-1.77.7-2.667.991a.794.794,0,0,1-.33.035A.805.805,0,0,1,1121.889,871.9Zm-25.185-1.7c-.838-.437-1.664-.92-2.455-1.428a.846.846,0,1,1,.909-1.428c.755.484,1.546.944,2.337,1.357a.847.847,0,0,1-.46,1.593A.875.875,0,0,1,1096.7,870.205Zm-6.172-4.19c-.72-.614-1.428-1.263-2.089-1.936a.851.851,0,0,1,1.2-1.2q.956.956,1.983,1.841a.846.846,0,0,1-.614,1.487A.718.718,0,0,1,1090.532,866.015Zm-5.11-5.429c-.567-.755-1.109-1.546-1.617-2.349a.846.846,0,0,1,1.428-.909c.484.755.991,1.511,1.534,2.231a.848.848,0,0,1-.165,1.192.812.812,0,0,1-.578.165A.8.8,0,0,1,1085.422,860.587Zm-3.812-6.408c-.39-.862-.744-1.747-1.062-2.644a.851.851,0,1,1,1.605-.567c.295.85.637,1.688,1.015,2.514a.852.852,0,0,1-.425,1.121.83.83,0,0,1-.413.071A.854.854,0,0,1,1081.609,854.178Zm-2.313-7.1c-.189-.921-.342-1.865-.46-2.809a.85.85,0,0,1,1.688-.2c.106.9.248,1.794.437,2.667a.849.849,0,0,1-.661,1,.815.815,0,0,1-.236.012A.851.851,0,0,1,1079.3,847.073Zm-.7-7.423c.012-.7.047-1.4.094-2.089.024-.248.047-.5.071-.755a.849.849,0,1,1,1.688.177c-.024.236-.047.472-.059.708-.047.661-.083,1.322-.094,1.995a.854.854,0,0,1-.862.838h-.047A.89.89,0,0,1,1078.6,839.65Z" transform="translate(-1078.6 -830.281)" fill="#bdd0fb"/>
          <path id="Path_59284" data-name="Path 59284" d="M1502.182,1101.431a.837.837,0,0,0,.5-.118c.389-.236.791-.484,1.18-.732a.844.844,0,0,0-.92-1.416c-.366.236-.744.472-1.121.7a.856.856,0,0,0-.3,1.168A.867.867,0,0,0,1502.182,1101.431Z" transform="translate(-1451.505 -1062.227)" fill="#bdd0fb"/>
        </g>
        <g id="Group_23560" data-name="Group 23560" transform="translate(8.415 8.133)">
          <path id="Path_59285" data-name="Path 59285" d="M1195.785,694.129a.412.412,0,0,0,.071-.46l-2.219-4.284a20.943,20.943,0,0,0,2.455-6.349l4.52-1.676a.41.41,0,0,0,.26-.378l-.142-5.795a.394.394,0,0,0-.271-.366l-4.6-1.463a20.849,20.849,0,0,0-2.762-6.232l2.006-4.39a.4.4,0,0,0-.083-.448l-4.19-4a.412.412,0,0,0-.46-.071l-4.284,2.219a20.946,20.946,0,0,0-6.349-2.455l-1.676-4.52a.41.41,0,0,0-.378-.26l-5.795.142a.394.394,0,0,0-.366.271l-1.463,4.6a20.849,20.849,0,0,0-6.231,2.762l-4.39-2.006a.4.4,0,0,0-.448.083l-4,4.19a.412.412,0,0,0-.071.46l2.219,4.284a20.954,20.954,0,0,0-2.455,6.349l-4.52,1.676a.41.41,0,0,0-.26.378l.142,5.795a.394.394,0,0,0,.271.366l4.6,1.463a20.851,20.851,0,0,0,2.761,6.231l-2.006,4.39a.4.4,0,0,0,.083.448l4.19,4a.413.413,0,0,0,.46.071l4.284-2.219a20.951,20.951,0,0,0,6.349,2.455l1.676,4.52a.41.41,0,0,0,.378.26l5.795-.142a.394.394,0,0,0,.366-.271l1.464-4.6a20.851,20.851,0,0,0,6.231-2.762l4.39,2.006a.4.4,0,0,0,.448-.082Z" transform="translate(-1149.9 -653.2)" fill="#a8d7fe"/>
          <path id="Path_59286" data-name="Path 59286" d="M1321.013,831.174a5.886,5.886,0,1,1,.838.118A4.213,4.213,0,0,1,1321.013,831.174Zm-1.086-9.453a4.466,4.466,0,1,0,3.375-.578,4.092,4.092,0,0,0-.649-.094A4.505,4.505,0,0,0,1319.928,821.721Z" transform="translate(-1296.82 -800.029)" fill="url(#linear-gradient)"/>
          <path id="Path_59287" data-name="Path 59287" d="M1256.95,775.292c.484.035.979.047,1.475.035h0c.153,0,.307-.012.46-.024a14.534,14.534,0,0,0,2.266-.307.044.044,0,0,0,.035-.012c.024-.012.059-.012.083-.024l.165-.035a.353.353,0,0,0,.26-.307.329.329,0,0,0-.012-.106.341.341,0,0,0-.413-.248,13.855,13.855,0,0,1-2.88.378,13.647,13.647,0,0,1-13.949-13.312,13.887,13.887,0,0,1,.035-1.4,13.651,13.651,0,0,1,13.277-12.557,13.646,13.646,0,0,1,13.95,13.3,13.441,13.441,0,0,1-.035,1.381,13.715,13.715,0,0,1-1.723,5.665.65.65,0,0,0-.047.142.318.318,0,0,0,.165.319.334.334,0,0,0,.46-.13,14.323,14.323,0,0,0,1.818-5.948q.053-.726.036-1.452a14.308,14.308,0,0,0-24.666-9.536,14.153,14.153,0,0,0-3.906,8.745c-.035.484-.047.979-.035,1.475a14.366,14.366,0,0,0,13.183,13.962Z" transform="translate(-1232.685 -735.638)" fill="url(#linear-gradient-2)"/>
        </g>
      </g>
      <g id="Group_23565" data-name="Group 23565" transform="translate(51.844 34.236)">
        <g id="Group_23562" data-name="Group 23562" transform="translate(18.293)">
          <path id="Path_59288" data-name="Path 59288" d="M1867.084,1120.1a.535.535,0,0,0,.531-.342c.153-.413.307-.838.437-1.263a.526.526,0,1,0-1-.319c-.13.4-.272.814-.413,1.2a.515.515,0,0,0,.307.673A.227.227,0,0,0,1867.084,1120.1Z" transform="translate(-1843.738 -1089.081)" fill="#e2edff"/>
          <path id="Path_59289" data-name="Path 59289" d="M1697.257,901.5a.527.527,0,0,1-.425-.614c.13-.72.224-1.452.283-2.183q.018-.23.036-.46a.528.528,0,0,1,.555-.5.544.544,0,0,1,.5.555c-.012.165-.024.319-.036.484a21.266,21.266,0,0,1-.3,2.29.516.516,0,0,1-.555.425C1697.292,901.516,1697.28,901.5,1697.257,901.5Zm-.118-5.913a22.141,22.141,0,0,0-.342-2.644.523.523,0,1,1,1.027-.2,21.7,21.7,0,0,1,.354,2.773.518.518,0,0,1-.484.555h-.071A.511.511,0,0,1,1697.139,895.591Zm-1-5.216a21.2,21.2,0,0,0-.98-2.478.523.523,0,0,1,.944-.448,24.712,24.712,0,0,1,1.027,2.6.521.521,0,0,1-.342.661.584.584,0,0,1-.2.024A.533.533,0,0,1,1696.136,890.375Zm-2.242-4.815a20.075,20.075,0,0,0-1.558-2.16.524.524,0,1,1,.8-.673,22.024,22.024,0,0,1,1.629,2.266.518.518,0,0,1-.165.72.613.613,0,0,1-.319.083A.5.5,0,0,1,1693.893,885.56Zm-3.364-4.119a21.726,21.726,0,0,0-2.03-1.723.523.523,0,0,1,.626-.838,20.71,20.71,0,0,1,2.125,1.806.524.524,0,0,1,.012.744.542.542,0,0,1-.425.165A.685.685,0,0,1,1690.53,881.441Zm-4.261-3.175a20.225,20.225,0,0,0-2.384-1.168.524.524,0,1,1,.4-.968,22.321,22.321,0,0,1,2.5,1.227.534.534,0,0,1,.2.72.512.512,0,0,1-.5.26A.821.821,0,0,1,1686.269,878.266Zm-4.9-2.042a21.333,21.333,0,0,0-2.608-.555.519.519,0,1,1,.153-1.027,23.286,23.286,0,0,1,2.726.578.531.531,0,0,1,.366.649.511.511,0,0,1-.543.378A.224.224,0,0,0,1681.371,876.225Zm-8.486-1.157a.536.536,0,0,1,.472-.578,20.726,20.726,0,0,1,2.419-.106h.366a.525.525,0,0,1-.035,1.05h-.342a18.749,18.749,0,0,0-2.313.106h-.094A.508.508,0,0,1,1672.886,875.068Z" transform="translate(-1672.884 -874.381)" fill="#e2edff"/>
        </g>
        <g id="Group_23563" data-name="Group 23563" transform="translate(0 30.485)">
          <path id="Path_59290" data-name="Path 59290" d="M1536.829,1147.392a23.613,23.613,0,0,1-2.714-.413.525.525,0,1,1,.224-1.027,21.326,21.326,0,0,0,2.585.389.526.526,0,0,1,.472.567.52.52,0,0,1-.566.484Zm2.207-.425a.527.527,0,0,1,.508-.543,21.4,21.4,0,0,0,2.608-.236.526.526,0,1,1,.165,1.039,21.094,21.094,0,0,1-2.738.248h-.059A.515.515,0,0,1,1539.036,1146.967Zm-7.565-.72a22.513,22.513,0,0,1-2.538-1.05.52.52,0,0,1,.46-.933,21.651,21.651,0,0,0,2.419,1,.518.518,0,0,1,.318.661.545.545,0,0,1-.531.354C1531.554,1146.271,1531.518,1146.259,1531.471,1146.247Zm12.876.047a.522.522,0,0,1,.366-.649,20.569,20.569,0,0,0,2.478-.861.524.524,0,1,1,.4.968,21.675,21.675,0,0,1-2.6.9.909.909,0,0,1-.177.024A.517.517,0,0,1,1544.347,1146.294Zm-17.8-2.467a23.073,23.073,0,0,1-2.207-1.629.527.527,0,1,1,.684-.8,21.044,21.044,0,0,0,2.1,1.558.518.518,0,0,1,.153.72.531.531,0,0,1-.484.236A.393.393,0,0,1,1526.55,1143.828Zm-4.2-3.517a22.7,22.7,0,0,1-1.747-2.112.524.524,0,0,1,.85-.614,20.772,20.772,0,0,0,1.676,2.018.524.524,0,0,1-.024.744.513.513,0,0,1-.4.142A.6.6,0,0,1,1522.348,1140.311Zm-3.234-4.426a21.742,21.742,0,0,1-1.192-2.478.524.524,0,0,1,.968-.4,22.742,22.742,0,0,0,1.133,2.36.523.523,0,0,1-.2.708.676.676,0,0,1-.3.071A.479.479,0,0,1,1519.115,1135.885Z" transform="translate(-1517.885 -1132.685)" fill="#e2edff"/>
          <path id="Path_59291" data-name="Path 59291" d="M1784.43,1220.833a.442.442,0,0,0,.3-.071c.39-.224.779-.46,1.145-.7a.517.517,0,0,0,.153-.72.528.528,0,0,0-.72-.154c-.354.224-.72.448-1.1.661a.534.534,0,0,0-.2.72A.586.586,0,0,0,1784.43,1220.833Z" transform="translate(-1752.54 -1208.911)" fill="#e2edff"/>
        </g>
        <g id="Group_23564" data-name="Group 23564" transform="translate(3.932 5.419)">
          <path id="Path_59292" data-name="Path 59292" d="M1581.92,947.692a.269.269,0,0,0,.047-.307l-1.487-2.868a14.06,14.06,0,0,0,1.641-4.249l3.021-1.121a.27.27,0,0,0,.177-.26l-.094-3.871a.266.266,0,0,0-.189-.248l-3.08-.98a14.068,14.068,0,0,0-1.841-4.166l1.345-2.939a.271.271,0,0,0-.059-.307l-2.809-2.679a.268.268,0,0,0-.307-.047l-2.868,1.487a14.066,14.066,0,0,0-4.249-1.641l-1.121-3.021a.27.27,0,0,0-.26-.177l-3.871.094a.265.265,0,0,0-.248.189l-.98,3.08a14.067,14.067,0,0,0-4.166,1.841l-2.939-1.345a.271.271,0,0,0-.307.059l-2.679,2.809a.268.268,0,0,0-.047.307l1.487,2.868a14.062,14.062,0,0,0-1.64,4.249l-3.021,1.121a.27.27,0,0,0-.177.26l.094,3.871a.266.266,0,0,0,.189.248l3.08.98a14.067,14.067,0,0,0,1.841,4.166l-1.345,2.939a.271.271,0,0,0,.059.307l2.809,2.679a.268.268,0,0,0,.307.047l2.868-1.487a14.063,14.063,0,0,0,4.249,1.641l1.121,3.021a.27.27,0,0,0,.26.177l3.871-.094a.266.266,0,0,0,.248-.189l.98-3.08a14.068,14.068,0,0,0,4.166-1.841l2.939,1.345a.272.272,0,0,0,.307-.059Z" transform="translate(-1551.2 -920.3)" fill="#a8d7fe"/>
          <path id="Path_59293" data-name="Path 59293" d="M1665.326,1039.089a3.827,3.827,0,1,1,.578.094C1665.715,1039.16,1665.515,1039.125,1665.326,1039.089Zm-1.971-4.52a2.913,2.913,0,0,0,2.2,3.482h0a2.913,2.913,0,0,0,3.481-2.2,2.92,2.92,0,0,0-2.2-3.493,1.755,1.755,0,0,0-.425-.059A2.929,2.929,0,0,0,1663.355,1034.569Z" transform="translate(-1649.134 -1018.164)" fill="url(#linear-gradient-3)"/>
          <path id="Path_59294" data-name="Path 59294" d="M1620.5,1000.037a10.249,10.249,0,0,0,3-.224c.024-.012.059-.012.083-.024a.541.541,0,0,0,.4-.472.784.784,0,0,0-.012-.165.537.537,0,0,0-.637-.39,9.968,9.968,0,0,1-1.865.248h-.106a8.694,8.694,0,0,1-4.2-1,8.787,8.787,0,0,1-1.935-1.381l-.012-.012-.047-.047a8.77,8.77,0,0,1-2.738-6.172,7.7,7.7,0,0,1,.024-.909,8.825,8.825,0,0,1,17.62.472,7.614,7.614,0,0,1-.024.9,8.706,8.706,0,0,1-1.121,3.659.756.756,0,0,0-.071.212.523.523,0,0,0,.98.3,9.689,9.689,0,0,0,1.251-4.1,9.524,9.524,0,0,0,.024-1,9.878,9.878,0,0,0-19.721-.555,9.639,9.639,0,0,0-.024,1.015A9.961,9.961,0,0,0,1620.5,1000.037Z" transform="translate(-1604.261 -973.2)" fill="url(#linear-gradient-4)"/>
        </g>
      </g>
    </g>
    <g id="Group_23567" data-name="Group 23567" transform="translate(28.383)">
      <path id="Path_59295" data-name="Path 59295" d="M719.928,478.14A1.944,1.944,0,0,1,722.8,475.8c16.074,10.4,56.094,43.03,60.142,112.023,5.075,86.555,28.324,114.254,53.71,129.112,0,0-31.771-3.387-56.436-31.287C719.645,617.119,732.356,509.274,719.928,478.14Z" transform="translate(-719.785 -475.483)" fill="#d1eaff"/>
      <path id="Path_59296" data-name="Path 59296" d="M850.053,701.159c3.434,9.111,6.68,18.293,9.595,27.581q4.443,13.9,8.013,28.041c2.349,9.43,4.508,18.907,6.267,28.454,1.806,9.548,3.2,19.154,4.556,28.808,1.416,9.642,2.785,19.355,5.157,28.962A99.168,99.168,0,0,0,894.7,870.6c1.286,2.124,2.62,4.237,4.072,6.255,1.4,2.042,2.9,4.013,4.438,5.972A102.367,102.367,0,0,0,937.54,910.89a1.885,1.885,0,0,0,1.77-3.328H939.3c-2.1-1.157-4.2-2.337-6.231-3.611-1.027-.614-2.018-1.286-3.033-1.924-.98-.685-1.995-1.322-2.95-2.042a100.816,100.816,0,0,1-11.023-9.135A109.038,109.038,0,0,1,898.228,868.5,94.786,94.786,0,0,1,891.89,855.7a106.959,106.959,0,0,1-4.414-13.643c-2.372-9.312-3.812-18.918-5.3-28.549s-3.068-19.3-5.039-28.879q-1.452-7.187-3.175-14.328c-.555-2.384-1.156-4.756-1.759-7.117-.625-2.36-1.251-4.721-1.912-7.081q-3.948-14.127-8.757-27.982c-3.257-9.217-6.751-18.34-10.6-27.309a.489.489,0,0,0-.661-.26A.468.468,0,0,0,850.053,701.159Z" transform="translate(-834.65 -673.954)" fill="#fff"/>
    </g>
    <g id="Group_23569" data-name="Group 23569" transform="translate(0 52.464)">
      <g id="Group_23568" data-name="Group 23568">
        <path id="Path_59297" data-name="Path 59297" d="M542.582,1139.64a4.894,4.894,0,0,1-7.848,2.1c-14.469-12.581-52.176-51.833-49.993-117.983,1.841-55.858-2.467-86.331-5.382-100.021a3.067,3.067,0,0,1,5.039-2.927C508.841,942.467,582.862,1020.348,542.582,1139.64Z" transform="translate(-479.288 -920.023)" fill="#a8d7ff"/>
        <path id="Path_59298" data-name="Path 59298" d="M697.7,1598.644a1.4,1.4,0,0,1-.224.13,1.362,1.362,0,0,1-1.794-.7c-.342-.779-34.237-78.624-35.181-156.41a1.357,1.357,0,0,1,2.714-.023c.944,77.219,34.615,154.58,34.957,155.348A1.352,1.352,0,0,1,697.7,1598.644Z" transform="translate(-639.112 -1378.897)" fill="#fff"/>
      </g>
    </g>
    <g id="Group_23575" data-name="Group 23575" transform="translate(19.002 102.249)">
      <g id="Group_23571" data-name="Group 23571">
        <path id="Path_59299" data-name="Path 59299" d="M946.027,1355.628l-3.434,145.186-.531,22.459a5.334,5.334,0,0,1-5.346,5.311H648.054a5.334,5.334,0,0,1-5.346-5.311l-.331-22.471L640.3,1357.4c0-2.939,3.458-8.663,9.8-8.226l282.123-7.305a13.471,13.471,0,0,1,13.808,13.761Z" transform="translate(-640.3 -1341.863)" fill="#fafafa"/>
        <path id="Path_59300" data-name="Path 59300" d="M989.246,1575.462a5.05,5.05,0,0,1-5.087,4.98H709.176a5.05,5.05,0,0,1-5.087-4.98l-2.289-154.8c0-2.738,3.293-8.084,9.323-7.683l268.751-6.81a12.961,12.961,0,0,1,9.383,3.659,12.406,12.406,0,0,1,3.765,9.182Z" transform="translate(-694.542 -1398.572)" fill="#f2f2f2"/>
        <g id="Group_23570" data-name="Group 23570" transform="translate(139.474 27.09)">
          <path id="Path_59301" data-name="Path 59301" d="M1924.259,1576.073c-.071,2.549-1.428,4.65-3.033,4.662l-95.382.567c-1.806.012-3.269-2.219-3.246-4.933h0c.012-2.714,1.487-4.969,3.3-4.969h95.583c1.605-.012,2.844,2.113,2.773,4.673Z" transform="translate(-1822.538 -1571.4)" fill="#e5e5e5"/>
          <path id="Path_59302" data-name="Path 59302" d="M1926.144,2510.708c-.071,2.549-1.4,4.567-2.986,4.567l-94.049.519c-1.782.012-3.222-2.065-3.21-4.78h0c.012-2.715,1.475-4.815,3.257-4.815h94.238c1.593,0,2.821,1.948,2.75,4.508Z" transform="translate(-1825.451 -2395.876)" fill="#e5e5e5"/>
          <path id="Path_59303" data-name="Path 59303" d="M1923.245,2361.561c-.071,2.549-1.416,4.544-3,4.556l-94.426.519c-1.794.012-3.234-2.042-3.222-4.756h0c.012-2.714,1.475-4.78,3.269-4.78h94.615c1.605-.012,2.833,1.912,2.762,4.461Z" transform="translate(-1822.54 -2264.373)" fill="#e5e5e5"/>
          <path id="Path_59304" data-name="Path 59304" d="M1924.348,1746.183c-.071,2.136-2.419,3.871-5.263,3.895l-90.98.755c-3,.024-5.429-1.735-5.405-3.93v-.248c.024-2.195,2.479-4,5.488-4.013l91.146-.543c2.844-.012,5.1,1.7,5.028,3.836Z" transform="translate(-1822.627 -1721.954)" fill="#e5e5e5"/>
          <path id="Path_59305" data-name="Path 59305" d="M1923.463,1908.748c-.083,2.113-2.443,3.836-5.275,3.859l-90.733.684c-3,.024-5.393-1.723-5.358-3.895v-.248c.035-2.183,2.5-3.954,5.5-3.977l90.9-.472c2.844-.012,5.075,1.688,4.992,3.8Z" transform="translate(-1822.097 -1865.364)" fill="#e5e5e5"/>
        </g>
        <path id="Path_59306" data-name="Path 59306" d="M2858.822,2113.069h-30.933a.39.39,0,0,1,0-.779h30.933c3.8,0,7.022-3.541,7.022-7.718V2009.39a.39.39,0,0,1,.779,0v95.182C2866.623,2109.174,2863.047,2113.069,2858.822,2113.069Z" transform="translate(-2569.37 -1930.266)" fill="#bdd0fb"/>
        <path id="Path_59307" data-name="Path 59307" d="M702.889,1524.035a.393.393,0,0,1-.389-.389v-55.02a9.664,9.664,0,0,1,9.831-9.925h24.607a.389.389,0,0,1,0,.779H712.319a8.8,8.8,0,0,0-9.04,9.146v55.02A.393.393,0,0,1,702.889,1524.035Z" transform="translate(-695.159 -1444.911)" fill="#bdd0fb"/>
      </g>
      <path id="Path_59308" data-name="Path 59308" d="M917.4,1721.885H812.116a1.42,1.42,0,0,1-1.416-1.416V1606.616a1.42,1.42,0,0,1,1.416-1.416H917.4a1.42,1.42,0,0,1,1.416,1.416v113.852A1.42,1.42,0,0,1,917.4,1721.885Z" transform="translate(-790.59 -1574.121)" fill="#fff"/>
      <g id="Group_23574" data-name="Group 23574" transform="translate(20.075 31.079)">
        <g id="Group_23573" data-name="Group 23573" clip-path="url(#clip-path)">
          <path id="Path_59309" data-name="Path 59309" d="M1633.979,2285.843c-3.234-18.836-11.873-36.043-11.873-36.043l-11.306,39.206a14.434,14.434,0,0,1,.519,1.428l18.824-.035A3.91,3.91,0,0,0,1633.979,2285.843Z" transform="translate(-1516.338 -2173.725)" fill="#096ef2"/>
          <path id="Path_59310" data-name="Path 59310" d="M790.618,2290.434c1.239-4.426,2.2-7.281,2.2-7.281L774.332,2249.8s-4.2,5-8.7,33.777a5.866,5.866,0,0,0,5.747,6.857Z" transform="translate(-770.85 -2173.725)" fill="#096ef2"/>
          <path id="Path_59311" data-name="Path 59311" d="M1084.147,2175.849l-5.016-52.53c-22.376-8.273-50.606.992-50.606.992l-2.325,51.538Z" transform="translate(-1000.732 -2059.14)" fill="url(#linear-gradient-5)"/>
          <g id="Group_23572" data-name="Group 23572" transform="translate(32.456 5.577)">
            <path id="Path_59312" data-name="Path 59312" d="M1167.011,2008.6l-.425,13.867a3.133,3.133,0,0,0,2.1,3.057c3.541,1.251,10.881,3.151,17.833.661a3.14,3.14,0,0,0,2.03-3.411l-2.089-14.174Z" transform="translate(-1157.004 -1966.569)" fill="url(#linear-gradient-6)"/>
            <path id="Path_59313" data-name="Path 59313" d="M1109.7,1673.6s2.431,24.819,7.789,31.145c0,0,16.062,1.464,21.892-1.947a92.376,92.376,0,0,0,3.647-28.95s.8-15.059-15.814-16.3C1107.766,1656.087,1109.7,1673.6,1109.7,1673.6Z" transform="translate(-1106.787 -1656.873)" fill="url(#linear-gradient-7)"/>
            <path id="Path_59314" data-name="Path 59314" d="M1378.1,1827.479s1.464-4.379,3.895-4.379-.484,11.672-3.895,11.672Z" transform="translate(-1343.557 -1802.961)" fill="url(#linear-gradient-8)"/>
            <path id="Path_59315" data-name="Path 59315" d="M1090.538,1841.272s-2.042-4.142-4.449-3.812,2.054,11.507,5.429,11.047Z" transform="translate(-1085.404 -1815.609)" fill="url(#linear-gradient-9)"/>
            <path id="Path_59316" data-name="Path 59316" d="M1112.8,1790.777s1.912,23.863,8.427,32.2a3.272,3.272,0,0,0,2.372,1.263c3.328.177,11.837.5,16.629-.566a3.546,3.546,0,0,0,2.573-2.467,33.083,33.083,0,0,0,1.357-4.874c.165-3.706,1-13.961,2.1-27.947-.331-.531-.661-1.05-.991-1.581-.307,3.234-2.278,23.828-5.417,24.312a4.489,4.489,0,0,1-1.4-.047c-1.9-.39-2.49-1.888-3.812-2.856-2.313-1.7-6.279-1.357-8.5.413-.921.743-1.5,1.7-3.116,2.384a6.483,6.483,0,0,1-2.3.543c-2.29-.094-4.579-9.123-5.854-21.408Z" transform="translate(-1109.567 -1770.945)" fill="#204490"/>
            <path id="Path_59317" data-name="Path 59317" d="M1128.727,1662.99s-12.392,10.751-25.9,10.716c0,0-7.671-17.278,7.411-20.158s15.567.826,15.567.826,17.644-3.659,9.8,17.467Z" transform="translate(-1099.046 -1652.458)" fill="#204490"/>
          </g>
          <path id="Path_59318" data-name="Path 59318" d="M856.139,2188.212h13.277l6.373-54.312c-17.455,1.593-35.889,13.678-35.889,13.678l13.726,33.317A63.009,63.009,0,0,1,856.139,2188.212Z" transform="translate(-836.418 -2071.504)" fill="#096ef2"/>
          <path id="Path_59319" data-name="Path 59319" d="M1403.067,2180.275a85.756,85.756,0,0,1,2.679-8.911l7.671-31.723c-15.3-11.943-39.218-14.741-39.218-14.741l8.946,55.375Z" transform="translate(-1307.661 -2063.566)" fill="#096ef2"/>
        </g>
      </g>
    </g>
    <g id="Group_23577" data-name="Group 23577" transform="translate(218.006 112.112)">
      <g id="Group_23576" data-name="Group 23576">
        <path id="Path_59321" data-name="Path 59321" d="M2005.059,537.165a12.87,12.87,0,0,0-7.329-10.775l-54.584-25.917a12.846,12.846,0,0,0-11.047,0l-54.572,25.917a12.885,12.885,0,0,0-7.329,10.775c-5.122,79.131,45.626,107.975,62.255,115.257a12.94,12.94,0,0,0,10.35,0C1959.433,645.14,2010.181,616.308,2005.059,537.165Z" transform="translate(-1869.838 -499.225)" fill="#a8d7fe"/>
        <path id="Path_59322" data-name="Path 59322" d="M2299.9,546.205a.581.581,0,0,1-.248-1.109l12.9-6.125a.586.586,0,0,1,.5,1.062l-12.9,6.125A.773.773,0,0,1,2299.9,546.205Z" transform="translate(-2248.628 -534.229)" fill="#fff" opacity="0.77"/>
        <path id="Path_59323" data-name="Path 59323" d="M1903.24,652.154a.587.587,0,0,1-.59-.566c-.177-5.134-.083-10.5.271-15.932a9.015,9.015,0,0,1,5.122-7.541l36.716-17.443a.586.586,0,0,1,.5,1.062l-36.7,17.455a7.823,7.823,0,0,0-4.461,6.55c-.354,5.393-.437,10.716-.271,15.814a.59.59,0,0,1-.567.6Z" transform="translate(-1898.701 -597.467)" fill="#fff" opacity="0.77"/>
        <path id="Path_59324" data-name="Path 59324" d="M2091.711,643.052a3.219,3.219,0,0,0-1.829-2.738l-51.019-24.229a3.207,3.207,0,0,0-2.75,0l-51.019,24.229a3.219,3.219,0,0,0-1.829,2.738c-1.51,29.516,5.311,54.147,20.276,73.242a90.66,90.66,0,0,0,32.6,26,3.212,3.212,0,0,0,2.714,0,90.491,90.491,0,0,0,32.6-26C2086.4,697.2,2093.221,672.568,2091.711,643.052Z" transform="translate(-1969.696 -602.02)" fill="#096ef2"/>
      </g>
    </g>
  </g>
</svg>
